<?xml version="1.0" encoding="UTF-8" standalone="no"?>
<!-- Created with Inkscape (http://www.inkscape.org/) -->

<svg
   xmlns:osb="http://www.openswatchbook.org/uri/2009/osb"
   xmlns:dc="http://purl.org/dc/elements/1.1/"
   xmlns:cc="http://creativecommons.org/ns#"
   xmlns:rdf="http://www.w3.org/1999/02/22-rdf-syntax-ns#"
   xmlns:svg="http://www.w3.org/2000/svg"
   xmlns="http://www.w3.org/2000/svg"
   xmlns:xlink="http://www.w3.org/1999/xlink"
   xmlns:sodipodi="http://sodipodi.sourceforge.net/DTD/sodipodi-0.dtd"
   xmlns:inkscape="http://www.inkscape.org/namespaces/inkscape"
   width="200mm"
   height="200mm"
   viewBox="0 0 708.66141 708.66141"
   id="svg4356"
   version="1.1"
   inkscape:version="0.91 r13725"
   sodipodi:docname="aristotlev2.svg">
  <defs
     id="defs4358">
    <linearGradient
       id="linearGradient4912"
       osb:paint="solid">
      <stop
         style="stop-color:#422b3b;stop-opacity:1;"
         offset="0"
         id="stop4914" />
    </linearGradient>
    <linearGradient
       id="linearGradient4906"
       osb:paint="solid">
      <stop
         style="stop-color:#000000;stop-opacity:1;"
         offset="0"
         id="stop4908" />
    </linearGradient>
    <filter
       style="color-interpolation-filters:sRGB;"
       inkscape:label="Drop Shadow"
       id="filter3316">
      <feFlood
         flood-opacity="0.498039"
         flood-color="rgb(0,0,0)"
         result="flood"
         id="feFlood3318" />
      <feComposite
         in="flood"
         in2="SourceGraphic"
         operator="out"
         result="composite1"
         id="feComposite3320" />
      <feGaussianBlur
         in="composite1"
         stdDeviation="33.8798"
         result="blur"
         id="feGaussianBlur3322" />
      <feOffset
         dx="-0.5"
         dy="1.4"
         result="offset"
         id="feOffset3324" />
      <feComposite
         in="offset"
         in2="SourceGraphic"
         operator="atop"
         result="composite2"
         id="feComposite3326" />
    </filter>
    <linearGradient
       inkscape:collect="always"
       xlink:href="#linearGradient4912"
       id="linearGradient4916-3"
       x1="154.2357"
       y1="523.79077"
       x2="628.6214"
       y2="523.79077"
       gradientUnits="userSpaceOnUse"
       gradientTransform="matrix(1.4940186,0,0,1.4940186,-229.2279,-427.44513)" />
    <linearGradient
       inkscape:collect="always"
       xlink:href="#linearGradient4912"
       id="linearGradient4916"
       x1="154.2357"
       y1="523.79077"
       x2="628.6214"
       y2="523.79077"
       gradientUnits="userSpaceOnUse"
       gradientTransform="matrix(1.4940186,0,0,1.4940186,-75.165412,-375.14098)" />
    <linearGradient
       inkscape:collect="always"
       xlink:href="#linearGradient4912"
       id="linearGradient4916-3-6"
       x1="154.2357"
       y1="523.79077"
       x2="628.6214"
       y2="523.79077"
       gradientUnits="userSpaceOnUse"
       gradientTransform="matrix(1.6274987,0,0,1.6274987,-281.04189,-533.52571)" />
  </defs>
  <sodipodi:namedview
     id="base"
     pagecolor="#ffffff"
     bordercolor="#666666"
     borderopacity="1.0"
     inkscape:pageopacity="0.0"
     inkscape:pageshadow="2"
     inkscape:zoom="0.7"
     inkscape:cx="318.09966"
     inkscape:cy="422.08998"
     inkscape:document-units="px"
     inkscape:current-layer="layer4"
     showgrid="false"
     fit-margin-top="0"
     fit-margin-left="0"
     fit-margin-right="0"
     fit-margin-bottom="0"
     inkscape:window-width="1543"
     inkscape:window-height="876"
     inkscape:window-x="57"
     inkscape:window-y="24"
     inkscape:window-maximized="1" />
  <metadata
     id="metadata4361">
    <rdf:RDF>
      <cc:Work
         rdf:about="">
        <dc:format>image/svg+xml</dc:format>
        <dc:type
           rdf:resource="http://purl.org/dc/dcmitype/StillImage" />
        <dc:title />
      </cc:Work>
    </rdf:RDF>
  </metadata>
  <g
     inkscape:label="Layer 1"
     inkscape:groupmode="layer"
     id="layer1"
     transform="translate(-154.23571,-52.322186)"
     style="display:inline">
    <path
       style="display:inline;opacity:1;fill:#2196f3;fill-opacity:1;stroke:url(#linearGradient4916-3);stroke-width:0.14940187;stroke-miterlimit:4;stroke-dasharray:none;stroke-opacity:1"
       d="M 355.57422 0.8125 A 354.29587 354.29587 0 0 0 1.2773438 355.10742 A 354.29587 354.29587 0 0 0 151.03906 644.11328 A 224.25386 106.06602 0 0 1 372.74609 553.09766 A 224.25386 106.06602 0 0 1 584.66016 624.85938 A 354.29587 354.29587 0 0 0 709.86914 355.10742 A 354.29587 354.29587 0 0 0 355.57422 0.8125 z "
       transform="translate(154.23571,52.322186)"
       id="path4904-7" />
    <circle
       style="display:inline;opacity:1;fill:#2196f3;fill-opacity:1;stroke:url(#linearGradient4916);stroke-width:0.14940187;stroke-miterlimit:4;stroke-dasharray:none;stroke-opacity:1"
       id="path4904"
       cx="509.6362"
       cy="407.41217"
       r="354.29587" />
  </g>
  <g
     inkscape:groupmode="layer"
     id="layer2"
     inkscape:label="Layer 4">
    <path
       inkscape:connector-curvature="0"
       style="display:inline;opacity:1;fill:#efefef;fill-opacity:1;stroke:url(#linearGradient4916-3-6);stroke-width:0.16274989;stroke-miterlimit:4;stroke-dasharray:none;stroke-opacity:1"
       d="M 361.24368,506.53673 110.14769,610.7092 c 39.28572,36.60715 56.43549,44.24626 56.43549,44.24626 20.88779,13.14059 45.79999,26.47996 67.06489,33.41273 0,0 54.17098,17.57455 29.04343,7.85183 0,0 -8.33221,0.14943 29.04344,7.85184 0,0 16.67059,4.59199 62.88507,5.60214 65.15484,0.25254 114.47725,-18.91678 114.47725,-18.91678 30.7539,-9.86783 49.38944,-20.4396 70.24549,-32.59543 0,0 39.78546,-24.4011 62.00882,-48.13969 z"
       id="path4904-7-6"
       sodipodi:nodetypes="ccccccccccc" />
  </g>
  <g
     inkscape:groupmode="layer"
     id="layer3"
     inkscape:label="Layer 3"
     style="display:inline">
    <ellipse
       style="display:inline;opacity:1;fill:#ffffff;fill-opacity:1;fill-rule:nonzero;stroke:#000000;stroke-width:0.13882551;stroke-miterlimit:4;stroke-dasharray:none;stroke-opacity:1"
       id="path3257-6-0"
       cx="364.64597"
       cy="592.42682"
       rx="30.435575"
       ry="31.417366" />
    <ellipse
       style="opacity:1;fill:#f1dccd;fill-opacity:1;fill-rule:nonzero;stroke:none;stroke-width:8.14299965;stroke-miterlimit:4;stroke-dasharray:none;stroke-opacity:1"
       id="path3493"
       cx="363.95398"
       cy="591.29449"
       rx="80"
       ry="76.428574" />
  </g>
  <g
     inkscape:groupmode="layer"
     id="layer4"
     inkscape:label="Layer 5">
    <ellipse
       style="display:inline;opacity:1;fill:#ffffff;fill-opacity:1;fill-rule:nonzero;stroke:#000000;stroke-width:0.13882551;stroke-miterlimit:4;stroke-dasharray:none;stroke-opacity:1"
       id="path3257-6-2"
       cx="328.31961"
       cy="573.77277"
       rx="30.435575"
       ry="31.417366" />
    <ellipse
       style="display:inline;opacity:1;fill:#ffffff;fill-opacity:1;fill-rule:nonzero;stroke:#000000;stroke-width:0.13882551;stroke-miterlimit:4;stroke-dasharray:none;stroke-opacity:1"
       id="path3257-6-23"
       cx="409.80841"
       cy="568.86377"
       rx="30.435575"
       ry="31.417366" />
    <ellipse
       style="display:inline;opacity:1;fill:#ffffff;fill-opacity:1;fill-rule:nonzero;stroke:#000000;stroke-width:0.13882551;stroke-miterlimit:4;stroke-dasharray:none;stroke-opacity:1"
       id="path3257-6-7"
       cx="418.81302"
       cy="543.21808"
       rx="30.435575"
       ry="31.417366" />
    <ellipse
       style="display:inline;opacity:1;fill:#ffffff;fill-opacity:1;fill-rule:nonzero;stroke:#000000;stroke-width:0.13882551;stroke-miterlimit:4;stroke-dasharray:none;stroke-opacity:1"
       id="path3257-6-5"
       cx="304.2309"
       cy="546.21271"
       rx="30.435575"
       ry="31.417366" />
    <path
       style="display:inline;fill:#ffffff;fill-opacity:1;stroke:none;stroke-width:0.69999999;stroke-miterlimit:4;stroke-dasharray:none;stroke-opacity:1"
       inkscape:connector-curvature="0"
       id="path15"
       d="m 597.52156,197.2149 c 0,0 -34.30221,191.60342 -76.00907,239.00875 -41.7062,47.40532 -99.32324,76.72682 -162.96538,76.72682 -63.64147,0 -115.36777,-9.68498 -157.07395,-57.09098 -41.70685,-47.40532 -62.32997,-113.08106 -67.50349,-185.23451 -5.89074,-82.15663 6.16079,-139.79214 54.74018,-181.306719 48.00047,-41.01981 94.59556,-49.07852 158.2377,-49.07852 63.64215,0 61.86142,4.827319 119.27629,18.851706 26.23976,13.219648 68.71839,37.830357 68.71839,37.830357 0,0 16.93962,6.971806 38.64148,34.722966 32.88324,42.04925 23.93785,65.57013 23.93785,65.57013 z"
       sodipodi:nodetypes="csscsssccsc" />
    <path
       style="display:inline;fill:#f1dccd;fill-opacity:1"
       inkscape:connector-curvature="0"
       id="path19"
       d="m 535.59476,283.9138 c 0,63.24641 11.36471,147.50821 -21.01607,188.9556 -32.38077,41.44742 -109.53558,94.47748 -158.94731,94.47748 -49.41107,0 -123.59748,-53.03006 -155.97825,-94.47748 C 167.27236,431.42201 175.46597,367.36462 174.40173,304.12651 173.41991,245.78842 285.90313,101.45306 353.48182,91.259657 406.14133,83.316671 556.31966,251.30712 505.99011,235.24354 468.89714,223.40465 273.68114,220.26175 351.24743,120.57379 377.50945,86.821916 535.59476,220.66676 535.59476,283.9138 Z"
       sodipodi:nodetypes="sssssssss" />
    <ellipse
       cx="267.51019"
       cy="307.14526"
       rx="39.508835"
       ry="26.361332"
       id="ellipse25"
       style="display:inline;fill:#ffffff;stroke:#000000;stroke-width:0;stroke-miterlimit:4;stroke-dasharray:none;stroke-opacity:1" />
    <g
       transform="matrix(-0.65848055,0,0,0.65848055,1271.7013,-103.12519)"
       id="g31"
       style="display:inline;fill:#e6bea3;fill-opacity:1">
      <path
         style="fill:#e6bea3;fill-opacity:1"
         inkscape:connector-curvature="0"
         id="path33"
         d="m 1348.5,731.667 c 24.894,-9.75 39.536,-54.321 41,-78" />
      <g
         id="g35"
         style="fill:#e6bea3;fill-opacity:1">
        <path
           style="fill:#e6bea3;fill-opacity:1"
           inkscape:connector-curvature="0"
           id="path37"
           d="m 1348.898,733.113 c 14.49,-5.968 23.539,-20.221 29.91,-33.87 6.614,-14.169 11.124,-29.942 12.191,-45.577 0.132,-1.932 -2.869,-1.919 -3,0 -1.005,14.722 -5.299,29.416 -11.239,42.869 -5.839,13.222 -14.691,27.931 -28.659,33.685 -1.763,0.726 -0.992,3.63 0.797,2.893 l 0,0 z" />
      </g>
    </g>
    <g
       transform="matrix(-0.65848055,0,0,0.65848055,1271.7013,-103.12519)"
       id="g39"
       style="display:inline;fill:#e6bea3;fill-opacity:1;stroke:none;stroke-width:202620976;stroke-miterlimit:4;stroke-dasharray:none;stroke-opacity:1">
      <path
         style="fill:#e6bea3;fill-opacity:1;stroke:none;stroke-width:202620976;stroke-miterlimit:4;stroke-dasharray:none;stroke-opacity:1"
         inkscape:connector-curvature="0"
         id="path41"
         d="m 1349.334,731.667 c 20.666,2.667 33.332,6 49.332,18.667" />
      <g
         id="g43"
         style="fill:#e6bea3;fill-opacity:1;stroke:none;stroke-width:202620976;stroke-miterlimit:4;stroke-dasharray:none;stroke-opacity:1">
        <path
           style="fill:#e6bea3;fill-opacity:1;stroke:none;stroke-width:202620976;stroke-miterlimit:4;stroke-dasharray:none;stroke-opacity:1"
           inkscape:connector-curvature="0"
           id="path45"
           d="m 1349.334,733.167 c 17.961,2.36 33.799,6.935 48.271,18.228 1.506,1.175 3.646,-0.932 2.121,-2.121 -7.065,-5.513 -14.544,-10.086 -22.951,-13.244 -8.777,-3.296 -18.193,-4.648 -27.441,-5.863 -1.914,-0.252 -1.89,2.751 0,3 l 0,0 z" />
      </g>
    </g>
    <ellipse
       style="display:inline;opacity:1;fill:#ffffff;fill-opacity:1;fill-rule:nonzero;stroke:#000000;stroke-width:0.13882551;stroke-miterlimit:4;stroke-dasharray:none;stroke-opacity:1"
       id="path3257"
       cx="202.6503"
       cy="433.3764"
       rx="30.435575"
       ry="31.417366" />
    <ellipse
       style="display:inline;opacity:1;fill:#ffffff;fill-opacity:1;fill-rule:nonzero;stroke:#000000;stroke-width:0.13882551;stroke-miterlimit:4;stroke-dasharray:none;stroke-opacity:1"
       id="path3257-3"
       cx="225.23146"
       cy="473.62997"
       rx="30.435575"
       ry="31.417366" />
    <ellipse
       style="display:inline;opacity:1;fill:#ffffff;fill-opacity:1;fill-rule:nonzero;stroke:none;stroke-width:0.99301803;stroke-miterlimit:4;stroke-dasharray:none;stroke-opacity:1"
       id="path3257-6"
       cx="344.02835"
       cy="552.17328"
       rx="30.435575"
       ry="31.417366" />
    <ellipse
       style="display:inline;opacity:1;fill:#ffffff;fill-opacity:1;fill-rule:nonzero;stroke:none;stroke-width:0.99301803;stroke-miterlimit:4;stroke-dasharray:none;stroke-opacity:1"
       id="path3257-7"
       cx="398.02692"
       cy="543.33716"
       rx="30.435575"
       ry="31.417366" />
    <ellipse
       style="display:inline;opacity:1;fill:#ffffff;fill-opacity:1;fill-rule:nonzero;stroke:#000000;stroke-width:0.13882551;stroke-miterlimit:4;stroke-dasharray:none;stroke-opacity:1"
       id="path3257-5"
       cx="445.15295"
       cy="515.84698"
       rx="30.435575"
       ry="31.417366" />
    <ellipse
       style="display:inline;opacity:1;fill:#ffffff;fill-opacity:1;fill-rule:nonzero;stroke:#000000;stroke-width:0.13882551;stroke-miterlimit:4;stroke-dasharray:none;stroke-opacity:1"
       id="path3257-35"
       cx="481.47931"
       cy="488.3569"
       rx="30.435575"
       ry="31.417366" />
    <ellipse
       style="display:inline;opacity:1;fill:#ffffff;fill-opacity:1;fill-rule:nonzero;stroke:#000000;stroke-width:0.13882551;stroke-miterlimit:4;stroke-dasharray:none;stroke-opacity:1"
       id="path3257-62"
       cx="514.86029"
       cy="452.03049"
       rx="30.435575"
       ry="31.417366" />
    <ellipse
       style="display:inline;opacity:1;fill:#ffffff;fill-opacity:1;fill-rule:nonzero;stroke:#000000;stroke-width:0.13882551;stroke-miterlimit:4;stroke-dasharray:none;stroke-opacity:1"
       id="path3257-9"
       cx="525.65997"
       cy="407.84982"
       rx="30.435575"
       ry="31.417366" />
    <ellipse
       style="display:inline;opacity:1;fill:#ffffff;fill-opacity:1;fill-rule:nonzero;stroke:none;stroke-width:0.99301803;stroke-miterlimit:4;stroke-dasharray:none;stroke-opacity:1"
       id="path3257-1"
       cx="300.82953"
       cy="539.40997"
       rx="30.435575"
       ry="31.417366" />
    <ellipse
       style="display:inline;opacity:1;fill:#ffffff;fill-opacity:1;fill-rule:nonzero;stroke:#000000;stroke-width:0.13882551;stroke-miterlimit:4;stroke-dasharray:none;stroke-opacity:1"
       id="path3257-2"
       cx="261.5578"
       cy="519.77417"
       rx="30.435575"
       ry="31.417366" />
    <ellipse
       style="display:inline;opacity:1;fill:#ffffff;fill-opacity:1;fill-rule:nonzero;stroke:none;stroke-width:0.99301803;stroke-miterlimit:4;stroke-dasharray:none;stroke-opacity:1"
       id="path3257-70"
       cx="244.1003"
       cy="442.21255"
       rx="23.77779"
       ry="24.544819" />
    <ellipse
       style="display:inline;opacity:1;fill:#ffffff;fill-opacity:1;fill-rule:nonzero;stroke:none;stroke-width:0.99301803;stroke-miterlimit:4;stroke-dasharray:none;stroke-opacity:1"
       id="path3257-70-9"
       cx="271.86664"
       cy="478.04807"
       rx="23.77779"
       ry="24.544819" />
    <ellipse
       style="display:inline;opacity:1;fill:#ffffff;fill-opacity:1;fill-rule:nonzero;stroke:none;stroke-width:0.99301803;stroke-miterlimit:4;stroke-dasharray:none;stroke-opacity:1"
       id="path3257-70-3"
       cx="307.21112"
       cy="500.62921"
       rx="23.77779"
       ry="24.544819" />
    <ellipse
       style="display:inline;opacity:1;fill:#ffffff;fill-opacity:1;fill-rule:nonzero;stroke:none;stroke-width:0.99301803;stroke-miterlimit:4;stroke-dasharray:none;stroke-opacity:1"
       id="path3257-70-6"
       cx="343.45328"
       cy="523.89014"
       rx="23.77779"
       ry="24.544819" />
    <ellipse
       style="display:inline;opacity:1;fill:#ffffff;fill-opacity:1;fill-rule:nonzero;stroke:none;stroke-width:0.99301803;stroke-miterlimit:4;stroke-dasharray:none;stroke-opacity:1"
       id="path3257-70-0"
       cx="385.57162"
       cy="516.66022"
       rx="23.77779"
       ry="24.544819" />
    <ellipse
       style="display:inline;opacity:1;fill:#ffffff;fill-opacity:1;fill-rule:nonzero;stroke:none;stroke-width:0.99301803;stroke-miterlimit:4;stroke-dasharray:none;stroke-opacity:1"
       id="path3257-70-62"
       cx="417.50943"
       cy="489.33868"
       rx="28.53335"
       ry="29.453781" />
    <ellipse
       style="display:inline;opacity:1;fill:#ffffff;fill-opacity:1;fill-rule:nonzero;stroke:none;stroke-width:0.99301803;stroke-miterlimit:4;stroke-dasharray:none;stroke-opacity:1"
       id="path3257-70-62-6"
       cx="445.90463"
       cy="468.22998"
       rx="20.448902"
       ry="21.108545" />
    <ellipse
       style="display:inline;opacity:1;fill:#ffffff;fill-opacity:1;fill-rule:nonzero;stroke:none;stroke-width:0.99301803;stroke-miterlimit:4;stroke-dasharray:none;stroke-opacity:1"
       id="path3257-70-62-6-1"
       cx="470.67957"
       cy="447.12146"
       rx="20.448902"
       ry="21.108545" />
    <ellipse
       style="display:inline;opacity:1;fill:#ffffff;fill-opacity:1;fill-rule:nonzero;stroke:none;stroke-width:0.99301803;stroke-miterlimit:4;stroke-dasharray:none;stroke-opacity:1"
       id="path3257-70-62-6-8"
       cx="488.35187"
       cy="423.55841"
       rx="20.448902"
       ry="21.108545" />
    <ellipse
       style="display:inline;opacity:1;fill:#ffffff;fill-opacity:1;fill-rule:nonzero;stroke:#000000;stroke-width:0.13882551;stroke-miterlimit:4;stroke-dasharray:none;stroke-opacity:1"
       id="path3257-70-62-6-7"
       cx="530.56903"
       cy="383.30493"
       rx="20.448902"
       ry="21.108545" />
    <ellipse
       style="display:inline;opacity:1;fill:#ffffff;fill-opacity:1;fill-rule:nonzero;stroke:#000000;stroke-width:0.13882551;stroke-miterlimit:4;stroke-dasharray:none;stroke-opacity:1"
       id="path3257-70-62-6-9"
       cx="185.26945"
       cy="402.45001"
       rx="26.631128"
       ry="27.490196" />
    <ellipse
       style="display:inline;opacity:1;fill:#dbdbdb;fill-opacity:1;fill-rule:nonzero;stroke:none;stroke-width:0.99301803;stroke-miterlimit:4;stroke-dasharray:none;stroke-opacity:1"
       id="path3469"
       cx="199.21396"
       cy="588.99042"
       rx="32.890057"
       ry="22.090336" />
    <ellipse
       style="display:inline;opacity:1;fill:#dddddd;fill-opacity:1;fill-rule:nonzero;stroke:none;stroke-width:0.99301803;stroke-miterlimit:4;stroke-dasharray:none;stroke-opacity:1"
       id="path3469-2"
       cx="523.69641"
       cy="584.57239"
       rx="30.435575"
       ry="18.654062" />
    <path
       style="display:inline;opacity:1;fill:#999999;fill-opacity:1;fill-rule:nonzero;stroke:none;stroke-width:0.09930181;stroke-miterlimit:4;stroke-dasharray:none;stroke-opacity:1"
       id="path3575"
       d="m 192.83498,585.88087 c 0.98524,-2.70994 2.37717,-5.14736 4.29206,-7.29511 0.32611,-0.2978 0.65223,-0.59563 0.97836,-0.89344 0,0 4.45329,-1.81073 4.45329,-1.81073 l 0,0 c -0.33517,0.28252 -0.67034,0.56507 -1.0055,0.84762 -1.94264,2.07079 -3.37871,4.39731 -4.32662,7.0892 0,0 -4.39159,2.06246 -4.39159,2.06246 z"
       inkscape:connector-curvature="0" />
    <path
       style="display:inline;opacity:1;fill:#999999;fill-opacity:1;fill-rule:nonzero;stroke:none;stroke-width:0.09930181;stroke-miterlimit:4;stroke-dasharray:none;stroke-opacity:1"
       id="path3577"
       d="m 192.10452,592.72151 c -3.14919,-0.36779 -6.32916,-0.77675 -9.50306,-0.61307 0,0 3.87284,-2.83459 3.87284,-2.83459 l 0,0 c 3.21083,-0.0603 6.41556,0.3119 9.60372,0.65982 0,0 -3.9735,2.78784 -3.9735,2.78784 z"
       inkscape:connector-curvature="0" />
    <path
       style="display:inline;opacity:1;fill:#999999;fill-opacity:1;fill-rule:nonzero;stroke:none;stroke-width:0.09930181;stroke-miterlimit:4;stroke-dasharray:none;stroke-opacity:1"
       id="path3579"
       d="m 204.45063,583.14838 c 3.20559,0.30004 6.16506,1.77611 8.61329,3.8114 2.28027,2.29357 2.27612,4.59103 1.81644,7.5957 -0.49102,1.88751 -0.19494,0.96408 -0.88576,2.77106 0,0 -4.35557,2.01505 -4.35557,2.01505 l 0,0 c 0.72355,-1.7417 0.41154,-0.84972 0.93372,-2.67676 0.47568,-2.84103 0.61229,-4.97063 -1.57546,-7.16002 -2.40244,-1.97784 -5.31314,-3.38 -8.46688,-3.50822 0,0 3.92022,-2.84821 3.92022,-2.84821 z"
       inkscape:connector-curvature="0" />
    <path
       style="display:inline;opacity:1;fill:#999999;fill-opacity:1;fill-rule:nonzero;stroke:none;stroke-width:0.09930181;stroke-miterlimit:4;stroke-dasharray:none;stroke-opacity:1"
       id="path3581"
       d="m 525.56071,579.04305 c 0.27699,-1.22775 0.63089,-2.42585 1.03734,-3.61572 0,0 4.35803,-2.03621 4.35803,-2.03621 l 0,0 c -0.42668,1.15431 -0.76746,2.31731 -1.03465,3.52002 0,0 -4.36072,2.13191 -4.36072,2.13191 z"
       inkscape:connector-curvature="0" />
    <path
       style="display:inline;opacity:1;fill:#999999;fill-opacity:1;fill-rule:nonzero;stroke:none;stroke-width:0.09930181;stroke-miterlimit:4;stroke-dasharray:none;stroke-opacity:1"
       id="path3583"
       d="m 515.11431,582.90359 c -1.17194,-0.24206 -2.34009,-0.33266 -3.53261,-0.33981 0,0 3.90301,-2.82126 3.90301,-2.82126 l 0,0 c 1.21092,0.0511 2.4078,0.16178 3.60313,0.37323 0,0 -3.97353,2.78784 -3.97353,2.78784 z"
       inkscape:connector-curvature="0" />
    <path
       style="display:inline;opacity:1;fill:#b1b1b1;fill-opacity:1;fill-rule:nonzero;stroke:none;stroke-width:0.09930181;stroke-miterlimit:4;stroke-dasharray:none;stroke-opacity:1"
       id="path3585"
       d="m 530.35337,581.62877 c 2.82417,1.54741 5.38097,3.49309 7.37716,6.0249 1.49838,2.43387 1.81057,4.54281 1.18712,7.28265 0,0 -4.34715,2.0868 -4.34715,2.0868 l 0,0 c 0.69556,-2.71931 0.50686,-4.43883 -0.9613,-6.91135 -1.95007,-2.49561 -4.47578,-4.39874 -7.30603,-5.81811 0,0 4.0502,-2.66489 4.0502,-2.66489 z"
       inkscape:connector-curvature="0" />
    <path
       style="display:inline;opacity:1;fill:#ffffff;fill-opacity:1;fill-rule:nonzero;stroke:#000000;stroke-width:0;stroke-miterlimit:4;stroke-dasharray:none;stroke-opacity:1"
       id="path3612"
       d="m 297.41572,99.145359 c -0.76763,4.451491 -0.85916,8.985341 -0.99231,13.490161 -0.2868,5.44798 0.12755,10.55014 2.15356,15.63714 1.8852,4.36917 5.17861,7.78762 8.33217,11.25124 3.15377,3.30619 6.00369,6.85594 8.54752,10.64665 2.60172,3.99935 4.7401,8.31949 6.34113,12.81144 1.33416,3.79762 1.80308,7.77898 2.05377,11.77024 0.15908,3.10025 0.1061,6.20643 0.10445,9.30946 -0.0159,1.4618 -0.011,2.92367 -0.007,4.38551 0,0 -12.83782,6.53565 -12.83782,6.53565 l 0,0 c 0.014,-1.4661 0.0297,-2.93219 0.0282,-4.3984 0.0268,-3.08732 0.0424,-6.1752 -0.0226,-9.2622 -0.14922,-3.87811 -0.51258,-7.7619 -1.72529,-11.47379 -1.56454,-4.37998 -3.59498,-8.61045 -6.17744,-12.4859 -2.56504,-3.68998 -5.30096,-7.25243 -8.43936,-10.48141 -3.26439,-3.59085 -6.5859,-7.18669 -8.54674,-11.70311 -0.33288,-0.8025 -0.7285,-1.58178 -0.99865,-2.40751 -1.44292,-4.41044 -1.38665,-9.195 -1.37255,-13.77061 0.0856,-4.4822 0.1848,-8.96826 0.51548,-13.44021 0,0 13.04317,-6.414351 13.04317,-6.414351 z"
       inkscape:connector-curvature="0" />
    <path
       style="display:inline;opacity:1;fill:#ffffff;fill-opacity:1;fill-rule:nonzero;stroke:#000000;stroke-width:0;stroke-miterlimit:4;stroke-dasharray:none;stroke-opacity:1"
       id="path3614"
       d="m 305.28954,96.091829 c -0.5746,3.025763 -0.83462,6.113411 -0.8039,9.191081 0.06,3.478 1.04794,6.8375 2.2233,10.08268 1.42131,3.40248 3.23044,6.59257 5.28025,9.64786 2.41731,3.35354 4.94406,6.62573 7.32228,10.00734 2.31155,3.07144 3.88878,6.55696 5.62435,9.95968 1.68007,3.16365 3.16038,6.42704 4.55309,9.72554 1.23979,2.67703 1.84499,5.51441 2.16444,8.42663 0,0 -12.79715,6.67421 -12.79715,6.67421 l 0,0 c -0.22331,-2.78617 -0.72219,-5.51619 -1.86026,-8.09234 -1.38373,-3.26702 -2.81794,-6.51609 -4.48018,-9.65329 -1.68712,-3.34957 -3.25097,-6.76863 -5.50283,-9.79426 -2.37633,-3.39337 -4.85054,-6.71541 -7.32887,-10.03464 -2.12569,-3.13924 -4.02569,-6.41671 -5.49536,-9.92089 -1.25815,-3.36842 -2.29462,-6.87324 -2.45028,-10.48699 -0.14609,-3.12299 0.1918,-6.22725 0.46899,-9.33682 0,0 13.08213,-6.395791 13.08213,-6.395791 z"
       inkscape:connector-curvature="0" />
    <path
       style="display:inline;opacity:1;fill:#ffffff;fill-opacity:1;fill-rule:nonzero;stroke:#000000;stroke-width:0;stroke-miterlimit:4;stroke-dasharray:none;stroke-opacity:1"
       id="path3616"
       d="m 314.79329,101.01629 c -0.2601,4.25538 0.52082,8.48607 1.34132,12.65056 1.86684,7.02743 4.5428,13.83724 7.33893,20.56867 3.13753,7.49784 6.60984,14.87042 10.17931,22.18946 2.88126,5.83611 5.79081,11.65153 8.01167,17.75101 1.34383,4.15531 2.13391,8.44121 2.54225,12.76549 0.28265,3.59026 0.31938,7.19082 0.35323,10.78907 -5.3e-4,2.07952 -9.9e-4,1.05285 0.004,3.08005 0,0 -13.42216,6.52509 -13.42216,6.52509 l 0,0 c 0.0165,-2.03242 0.0115,-1.00459 0.0155,-3.08348 0.0227,-3.5758 0.0323,-7.15585 -0.20332,-10.7262 -0.36755,-4.24083 -1.04147,-8.43438 -2.26744,-12.53532 -1.97394,-6.13819 -4.82862,-11.93849 -7.66255,-17.7508 -3.53136,-7.36576 -6.93236,-14.79235 -10.16513,-22.28196 -2.84154,-6.78639 -5.64918,-13.6092 -7.72109,-20.65263 -0.95603,-4.18234 -1.79803,-8.39579 -1.91229,-12.68934 0,0 13.5675,-6.59967 13.5675,-6.59967 z"
       inkscape:connector-curvature="0" />
    <path
       style="display:inline;opacity:1;fill:#ffffff;fill-opacity:1;fill-rule:nonzero;stroke:#000000;stroke-width:0;stroke-miterlimit:4;stroke-dasharray:none;stroke-opacity:1"
       id="path3618"
       d="m 329.79287,81.385138 c -1.77634,4.228998 -2.45189,8.834729 -3.09686,13.346855 -0.96082,6.420477 -0.80127,12.802307 0.52188,19.139787 1.68181,5.89322 4.34082,11.43017 7.51998,16.64751 2.84057,4.27566 6.22154,8.16456 9.566,12.04933 2.77019,3.09664 5.19919,6.38813 6.76443,10.24632 1.55421,3.86984 1.92701,8.00244 2.14786,12.12242 0.30715,3.86255 -0.0583,7.71911 -0.37917,11.56602 -0.068,0.48973 -0.13608,0.97945 -0.20418,1.46917 0,0 -12.93173,6.31657 -12.93173,6.31657 l 0,0 c 0.0942,-0.46321 0.18846,-0.92644 0.28269,-1.38964 0.40633,-3.80105 0.87025,-7.60367 0.582,-11.43429 -0.19496,-3.95696 -0.50242,-7.94553 -1.94146,-11.67996 -1.56534,-3.67933 -3.80267,-6.92036 -6.47542,-9.89744 -3.36811,-3.9626 -6.69701,-7.98418 -9.59588,-12.30712 -3.17925,-5.39378 -5.84469,-11.08457 -7.67228,-17.08602 -1.50805,-6.66512 -1.54576,-12.78254 -0.73753,-19.56319 0.49099,-4.521543 1.15819,-9.045696 2.41567,-13.425792 0,0 13.234,-6.12053 13.234,-6.12053 z"
       inkscape:connector-curvature="0" />
    <path
       style="display:inline;opacity:1;fill:#ffffff;fill-opacity:1;fill-rule:nonzero;stroke:#000000;stroke-width:0;stroke-miterlimit:4;stroke-dasharray:none;stroke-opacity:1"
       id="path3620"
       d="m 331.74431,77.772403 c -1.19653,5.78053 -1.54623,11.679114 -1.8523,17.559342 -0.16869,5.256305 -0.30469,10.562105 0.23479,15.805185 0.3068,2.98179 0.63457,4.21528 1.23234,7.12458 1.25095,6.09195 3.51914,11.8662 5.94188,17.56551 2.10971,4.89475 4.59665,9.60972 7.19141,14.26075 2.45864,3.78046 4.58744,7.74817 6.78395,11.68049 1.6455,3.07967 2.76209,6.37741 3.45051,9.79104 0.68203,3.15859 1.26391,6.33591 1.32776,9.57187 -0.0516,0.49803 -0.10296,0.99608 -0.15449,1.49414 0,0 -12.92292,6.34838 -12.92292,6.34838 l 0,0 c 0.0868,-0.44092 0.17343,-0.88184 0.26013,-1.32277 0.11231,-3.1513 -0.51555,-6.26222 -1.17293,-9.33306 -0.60251,-3.28611 -1.64151,-6.45626 -3.16763,-9.43692 -2.14054,-3.95738 -4.20829,-7.95368 -6.61869,-11.75852 -2.66105,-4.67984 -5.14342,-9.45739 -7.27253,-14.40591 -2.38161,-5.82633 -4.64199,-11.70171 -5.89919,-17.89793 -0.58955,-2.90753 -0.95394,-4.34666 -1.25806,-7.32516 -0.53883,-5.27701 -0.41047,-10.62558 -0.34209,-15.91795 0.19882,-5.804203 0.48875,-11.61119 1.26321,-17.3719 0,0 12.97485,-6.431167 12.97485,-6.431167 z"
       inkscape:connector-curvature="0" />
    <path
       style="display:inline;opacity:1;fill:#ffffff;fill-opacity:1;fill-rule:nonzero;stroke:none;stroke-width:0.30000001;stroke-miterlimit:4;stroke-dasharray:none;stroke-opacity:1"
       id="path3622"
       d="m 333.9514,77.276173 c 0.94565,4.75316 1.7831,9.526531 2.59025,14.305643 1.06556,6.946063 2.61874,13.787044 4.48618,20.556934 1.72836,5.4996 3.93465,10.84928 6.55147,15.98413 2.19929,4.30102 4.77938,8.38718 7.19372,12.56537 2.09962,3.4206 4.01098,6.92401 5.70162,10.56234 1.6108,3.26584 2.62737,6.7203 3.22087,10.30055 0.0682,0.54034 0.13648,1.08068 0.20482,1.62102 0,0 -12.71627,6.66085 -12.71627,6.66085 l 0,0 c -0.0523,-0.52571 -0.10475,-1.05144 -0.15719,-1.57716 -0.50989,-3.47285 -1.44936,-6.79914 -2.98618,-9.96992 -1.68525,-3.59491 -3.52797,-7.0934 -5.55261,-10.51095 -2.3936,-4.22102 -5.03339,-8.30823 -7.19657,-12.65887 -2.56098,-5.27182 -4.84614,-10.69573 -6.48572,-16.3298 -1.87571,-6.80395 -3.41668,-13.6697 -4.63921,-20.622704 -0.86946,-4.668994 -1.66445,-9.361427 -2.9724,-13.933548 0,0 12.75722,-6.953885 12.75722,-6.953885 z"
       inkscape:connector-curvature="0" />
    <path
       style="display:inline;opacity:1;fill:#ffffff;fill-opacity:1;fill-rule:nonzero;stroke:none;stroke-width:0.30000001;stroke-miterlimit:4;stroke-dasharray:none;stroke-opacity:1"
       id="path3624"
       d="m 341.72437,76.64784 c 0.25606,5.151249 0.77354,10.283699 1.16329,15.425765 0.36791,4.726846 1.16676,9.425025 2.86013,13.862495 1.27095,3.35153 3.31773,6.28806 5.1578,9.3332 1.97642,3.05651 2.66995,6.55416 3.13595,10.09921 0.32329,3.34123 0.34368,6.70269 0.34617,10.0567 0.005,1.98601 0.003,1.00999 0.008,2.92808 0,0 -12.83266,6.53201 -12.83266,6.53201 l 0,0 c 0.0223,-1.92822 0.0125,-0.94793 0.0288,-2.94088 0.003,-3.30751 0.0458,-6.62148 -0.23715,-9.92037 -0.36273,-3.36603 -0.9803,-6.67587 -2.86304,-9.5669 -1.83765,-3.14369 -3.93347,-6.15267 -5.2277,-9.58609 -1.69659,-4.60575 -2.45121,-9.44803 -2.84247,-14.332008 -0.35096,-5.073938 -0.88694,-10.129881 -1.52729,-15.174496 0,0 12.82935,-6.716716 12.82935,-6.716716 z"
       inkscape:connector-curvature="0" />
    <path
       style="display:inline;opacity:1;fill:#ffffff;fill-opacity:1;fill-rule:nonzero;stroke:none;stroke-width:0.30000001;stroke-miterlimit:4;stroke-dasharray:none;stroke-opacity:1"
       id="path3626"
       d="m 355.3415,76.564149 c -0.79616,4.783895 -0.96002,9.654026 -0.9378,14.49467 0.37505,8.623966 3.05304,16.872481 6.11309,24.867021 3.29518,7.96989 7.08205,15.73243 10.01462,23.84747 2.53772,6.85038 3.75736,14.03078 4.56867,21.25804 0.61689,6.50001 1.07317,13.01005 1.44703,19.52793 0.17313,4.1891 -0.1079,8.36751 -1.3026,12.39349 -0.74412,1.8351 -0.32355,0.9755 -1.23974,2.58942 0,0 -13.22303,5.76956 -13.22303,5.76956 l 0,0 c 1.10386,-1.34994 0.59947,-0.60591 1.48324,-2.25211 1.3826,-3.88134 1.84237,-7.94931 1.794,-12.06558 -0.22047,-6.52049 -0.76532,-13.01523 -1.28244,-19.51735 -0.7245,-7.13999 -1.97169,-14.21328 -4.3397,-21.01262 -2.83054,-8.14751 -6.54784,-15.93482 -9.84966,-23.89648 -3.13931,-8.09827 -5.87639,-16.43905 -6.62396,-25.14603 -0.1248,-4.816516 -0.04,-9.637546 0.33511,-14.443075 0,0 13.04317,-6.414356 13.04317,-6.414356 z"
       inkscape:connector-curvature="0" />
    <path
       style="display:inline;opacity:1;fill:#ffffff;fill-opacity:1;fill-rule:nonzero;stroke:#000000;stroke-width:0;stroke-miterlimit:4;stroke-dasharray:none;stroke-opacity:1"
       id="path3628"
       d="m 366.14122,83.436693 c -1.04736,4.978209 -0.41129,9.934835 0.68323,14.834671 1.85546,7.232496 4.6929,14.160376 8.00774,20.835046 2.01317,4.37192 4.36187,8.56798 6.71728,12.75998 1.78377,3.28319 3.40313,6.65052 4.68641,10.1604 1.34467,3.51944 1.99209,7.24315 2.15105,10.99477 0.0992,2.20253 -0.31611,4.29867 -1.05338,6.35582 0,0 -13.09943,6.00722 -13.09943,6.00722 l 0,0 c 0.97068,-1.83158 1.46077,-3.74294 1.40412,-5.83783 0.0266,-3.61914 -0.65467,-7.20088 -1.92496,-10.59282 -1.18669,-3.46669 -2.86884,-6.71169 -4.52737,-9.97315 -2.34999,-4.23597 -4.56777,-8.53793 -6.46433,-13.00029 -3.21088,-6.82594 -6.15417,-13.81006 -8.15461,-21.09777 -1.2559,-4.959116 -2.09135,-9.904827 -1.46892,-15.031701 0,0 13.04317,-6.414346 13.04317,-6.414346 z"
       inkscape:connector-curvature="0" />
    <path
       style="display:inline;opacity:1;fill:#ffffff;fill-opacity:1;fill-rule:nonzero;stroke:#000000;stroke-width:0;stroke-miterlimit:4;stroke-dasharray:none;stroke-opacity:1"
       id="path3630"
       d="m 373.97354,78.439757 c -1.53162,4.521814 -1.61606,9.424536 -1.86719,14.153547 -0.37649,6.595343 1.21345,12.912926 3.43834,19.054396 1.88417,5.20511 4.55905,10.06628 7.06501,14.98734 1.834,3.89782 3.19074,8.0304 4.06987,12.24439 0.85909,4.26957 0.91082,8.63468 0.98261,12.97178 -0.0147,4.49293 0.13883,8.9883 -0.0695,13.47778 -0.25498,3.48914 -1.12235,6.8454 -2.51372,10.04349 0,0 -13.14024,5.9446 -13.14024,5.9446 l 0,0 c 1.68923,-2.95193 2.504,-6.24155 2.93648,-9.59922 0.30314,-4.45684 0.12286,-8.93466 0.1434,-13.39932 -0.0634,-4.24948 -0.14485,-8.52048 -0.88445,-12.7174 -0.86158,-4.105 -2.11763,-8.12903 -3.85487,-11.9523 -2.41742,-5.03298 -5.10496,-9.95003 -6.95575,-15.23344 -2.24454,-6.29882 -4.01717,-12.75336 -3.73231,-19.514168 0.16564,-4.791975 0.3781,-9.601225 1.1484,-14.340934 0,0 13.23401,-6.120541 13.23401,-6.120541 z"
       inkscape:connector-curvature="0" />
    <path
       style="display:inline;opacity:1;fill:#ffffff;fill-opacity:1;fill-rule:nonzero;stroke:#000000;stroke-width:0;stroke-miterlimit:4;stroke-dasharray:none;stroke-opacity:1"
       id="path3632"
       d="m 385.84921,94.143743 c -0.28923,4.64026 -0.0931,9.281197 0.3129,13.906547 0.55686,5.49382 1.83138,10.85794 3.6219,16.07113 1.6596,4.02687 3.79672,7.84232 5.78498,11.71628 1.98008,3.65038 3.81208,7.32789 5.20366,11.24439 1.30228,3.83526 2.139,7.7929 2.19239,11.84414 -0.0668,2.4434 -0.78396,4.76443 -1.85898,6.93752 0,0 -13.20792,5.86334 -13.20792,5.86334 l 0,0 c 1.31193,-1.85462 2.02354,-4.04637 2.29339,-6.29834 0.0837,-3.92466 -0.55557,-7.75521 -1.88993,-11.46175 -1.29661,-3.88495 -3.21879,-7.44561 -5.13059,-11.05784 -1.99681,-3.94983 -4.06592,-7.87448 -5.8005,-11.94587 -1.76503,-5.33859 -3.00245,-10.82815 -3.66265,-16.41566 -0.48233,-4.59144 -0.74054,-9.18889 -0.81123,-13.80422 0,0 12.95258,-6.599667 12.95258,-6.599667 z"
       inkscape:connector-curvature="0" />
    <path
       style="display:inline;opacity:1;fill:#ffffff;fill-opacity:1;fill-rule:nonzero;stroke:#000000;stroke-width:0;stroke-miterlimit:4;stroke-dasharray:none;stroke-opacity:1"
       id="path3634"
       d="m 375.26097,86.186853 c 1.49077,5.202701 3.96745,10.039531 6.5414,14.774497 2.7093,4.70381 5.94917,9.0472 9.46912,13.16653 3.11129,3.25905 6.27014,6.46749 9.55928,9.54729 2.9909,2.64741 5.3354,5.81603 7.39131,9.21374 2.07646,3.59364 2.93322,7.61376 3.64115,11.65173 0.84259,4.24848 1.05922,8.58097 1.26701,12.89672 -0.0334,2.40238 0.0149,1.21833 -0.14013,3.55233 0,0 -12.82078,6.40501 -12.82078,6.40501 l 0,0 c 0.21006,-2.26638 0.11834,-1.12184 0.27368,-3.43371 -0.10996,-4.26378 -0.33939,-8.53316 -1.1339,-12.73326 -0.74334,-3.85514 -1.41653,-7.72482 -3.45607,-11.1592 -2.00378,-3.27131 -4.22369,-6.37578 -7.12088,-8.93114 -3.29924,-3.13832 -6.5198,-6.35699 -9.60963,-9.70294 -3.5411,-4.22612 -6.68345,-8.74743 -9.48895,-13.49627 -2.55562,-4.80221 -5.01894,-9.656561 -7.04349,-14.711679 0,0 12.67088,-7.039648 12.67088,-7.039648 z"
       inkscape:connector-curvature="0" />
    <path
       style="display:inline;opacity:1;fill:#ffffff;fill-opacity:1;fill-rule:nonzero;stroke:#000000;stroke-width:0;stroke-miterlimit:4;stroke-dasharray:none;stroke-opacity:1"
       id="path3636"
       d="m 400.32154,89.440881 c -2.48046,2.838622 -4.07168,6.218681 -5.23961,9.767401 -0.95754,3.456208 -1.52482,7.016068 -1.10661,10.590478 0.88265,3.4167 3.35493,5.90573 5.73947,8.36001 2.71946,2.66494 4.70198,5.34946 5.84516,8.99216 0.11931,0.52663 0.23873,1.05326 0.35808,1.57987 0,0 -12.66193,6.78651 -12.66193,6.78651 l 0,0 c -0.0955,-0.49264 -0.19094,-0.98526 -0.28641,-1.4779 -0.97715,-3.36416 -2.91972,-6.021 -5.44853,-8.43678 -2.58781,-2.69036 -5.20301,-5.42242 -6.23989,-9.11827 -0.57787,-3.77093 -0.0109,-7.52551 0.94586,-11.20179 1.03647,-3.61915 2.46015,-7.072573 4.71147,-10.12399 0,0 13.38294,-5.717699 13.38294,-5.717699 z"
       inkscape:connector-curvature="0" />
    <path
       style="display:inline;opacity:1;fill:#ffffff;fill-opacity:1;fill-rule:nonzero;stroke:#000000;stroke-width:0;stroke-miterlimit:4;stroke-dasharray:none;stroke-opacity:1"
       id="path3638"
       d="m 395.93992,102.05695 c 2.5903,2.55893 5.58806,4.62626 8.44133,6.86902 3.23634,2.55471 6.64497,4.86776 10.10568,7.10393 3.26564,1.96954 6.4405,4.10509 9.83432,5.84997 3.08105,1.63144 6.26075,3.10268 9.51965,4.34422 3.57808,1.37256 7.3045,2.3305 11.00646,3.30776 3.57789,0.8746 6.94052,2.12083 10.13704,3.94446 3.48389,2.21081 6.61173,4.89051 9.81455,7.47323 3.11955,2.55937 5.5104,5.78898 7.81555,9.06094 1.28364,1.98745 0.66937,0.98261 1.844,3.01378 0,0 -12.40989,7.16327 -12.40989,7.16327 l 0,0 c -1.12705,-1.96427 -0.54591,-0.98874 -1.74395,-2.92628 -2.20984,-3.17786 -4.54948,-6.28474 -7.58512,-8.73508 -3.13181,-2.55139 -6.21745,-5.17921 -9.70694,-7.24487 -3.14516,-1.68739 -6.51105,-2.73497 -9.95227,-3.65697 -3.72818,-1.05333 -7.50298,-1.9931 -11.1097,-3.42449 -3.27348,-1.32684 -6.5063,-2.77436 -9.59674,-4.48944 -3.37252,-1.85457 -6.61154,-3.939 -9.8784,-5.97181 -3.47014,-2.27951 -6.86981,-4.65729 -10.13517,-7.22411 -2.91516,-2.2308 -5.86801,-4.41055 -8.72414,-6.71666 0,0 12.32374,-7.74087 12.32374,-7.74087 z"
       inkscape:connector-curvature="0" />
    <path
       style="display:inline;opacity:1;fill:#ffffff;fill-opacity:1;fill-rule:nonzero;stroke:none;stroke-width:0.30000001;stroke-miterlimit:4;stroke-dasharray:none;stroke-opacity:1"
       id="path3640"
       d="m 200.19623,202.14563 c -1.88337,3.9267 -3.92897,7.77861 -5.92591,11.65073 -2.53732,5.00873 -4.63881,10.21445 -6.65141,15.45017 -1.88672,4.79508 -2.62296,9.86818 -3.00739,14.97159 -0.22639,4.59682 -0.45097,9.20871 0.15223,13.78205 0.65112,3.69019 2.26551,7.09001 4.35794,10.16798 2.24343,3.17037 4.81816,6.0846 7.17781,9.16689 2.19984,2.65122 3.15978,5.75136 3.69408,9.08632 0,0 -12.7343,6.71698 -12.7343,6.71698 l 0,0 c -0.38604,-3.12206 -1.20987,-6.00513 -3.22384,-8.50698 -2.38494,-3.10106 -4.9862,-6.02972 -7.24558,-9.2261 -2.20297,-3.27263 -3.90093,-6.86485 -4.62516,-10.76948 -0.65314,-4.66696 -0.40387,-9.37805 -0.2291,-14.0751 0.37181,-5.23474 1.06407,-10.44088 2.90604,-15.3914 2.07689,-5.25061 4.03417,-10.55556 6.62374,-15.58695 1.86331,-3.75534 3.80115,-7.48658 5.49683,-11.31616 0,0 13.23402,-6.12054 13.23402,-6.12054 z"
       inkscape:connector-curvature="0" />
    <path
       style="display:inline;opacity:1;fill:#ffffff;fill-opacity:1;fill-rule:nonzero;stroke:none;stroke-width:0.30000001;stroke-miterlimit:4;stroke-dasharray:none;stroke-opacity:1"
       id="path3642"
       d="m 199.21444,209.99995 c -1.8326,3.76901 -3.08746,7.76492 -4.15344,11.80636 -1.14866,4.96222 -1.96506,9.97973 -2.43147,15.04931 -0.52585,4.05307 0.0978,7.89654 1.69266,11.62032 1.51182,2.9514 3.02488,5.88036 4.26479,8.95864 0.16607,0.47449 0.33215,0.94898 0.4982,1.42348 0,0 -12.60005,6.94345 -12.60005,6.94345 l 0,0 c -0.14685,-0.45655 -0.2937,-0.91313 -0.44055,-1.36968 -1.19394,-3.0815 -2.72751,-5.99647 -4.20211,-8.95011 -1.6744,-3.94513 -2.44501,-8.0031 -1.88954,-12.30363 0.41408,-5.15356 1.29656,-10.22745 2.3928,-15.27924 0.93925,-4.00417 2.0886,-7.96159 3.6347,-11.77834 0,0 13.23401,-6.12056 13.23401,-6.12056 z"
       inkscape:connector-curvature="0" />
    <path
       style="display:inline;opacity:1;fill:#ffffff;fill-opacity:1;fill-rule:nonzero;stroke:none;stroke-width:0.30000001;stroke-miterlimit:4;stroke-dasharray:none;stroke-opacity:1"
       id="path3644"
       d="m 213.86645,195.38174 c -1.94888,3.1841 -2.92599,6.85523 -4.01768,10.39707 -1.1818,4.54836 -1.68221,9.25101 -2.19935,13.91401 -0.50866,3.65739 -0.16823,7.29181 0.63453,10.87087 0.90729,3.09484 1.33728,6.28429 1.56462,9.49186 0.20125,2.44833 0.0719,4.91131 0.31714,7.35463 0,0 -12.80241,6.6865 -12.80241,6.6865 l 0,0 c -0.25152,-2.47085 -0.0775,-4.96065 -0.25491,-7.4392 -0.20857,-3.1372 -0.57021,-6.2621 -1.45261,-9.29224 -0.89347,-3.72921 -1.25653,-7.55237 -0.71291,-11.37166 0.51096,-4.73013 1.05726,-9.4727 2.04271,-14.12916 1.0555,-3.56455 2.07158,-7.16834 3.56175,-10.57946 0,0 13.31912,-5.90322 13.31912,-5.90322 z"
       inkscape:connector-curvature="0" />
    <path
       style="display:inline;opacity:1;fill:#ffffff;fill-opacity:1;fill-rule:nonzero;stroke:none;stroke-width:0.30000001;stroke-miterlimit:4;stroke-dasharray:none;stroke-opacity:1"
       id="path3646"
       d="m 223.65068,153.23595 c -1.96286,3.91136 -3.2159,8.10934 -4.29258,12.33453 -1.05199,4.99436 -1.5857,10.12942 -1.3117,15.2294 0.46613,4.21587 1.82994,8.18981 3.61197,12.00892 1.66826,3.14372 3.30313,6.31862 4.60622,9.63318 1.12055,2.94149 1.30774,6.09351 1.41582,9.20576 0.0646,2.49172 0.0629,4.9848 0.0739,7.47726 0,0 -12.84915,6.54075 -12.84915,6.54075 l 0,0 c 0.0301,-2.48543 0.0563,-4.97111 0.005,-7.45651 -0.0995,-2.96199 -0.21066,-5.9623 -1.18618,-8.79243 -1.2172,-3.31415 -2.88542,-6.43976 -4.49208,-9.57815 -1.85683,-3.98994 -3.21969,-8.14051 -3.75306,-12.53109 -0.40325,-5.21622 0.24345,-10.46339 1.09904,-15.61129 1.01858,-4.2399 2.30649,-8.37989 3.82057,-12.46482 0,0 13.25173,-5.99551 13.25173,-5.99551 z"
       inkscape:connector-curvature="0" />
    <path
       style="display:inline;opacity:1;fill:#ffffff;fill-opacity:1;fill-rule:nonzero;stroke:#000000;stroke-width:0;stroke-miterlimit:4;stroke-dasharray:none;stroke-opacity:1"
       id="path3648"
       d="m 236.49293,151.17645 c -1.28419,4.2958 -2.18725,8.70615 -2.92784,13.12551 -1.04663,6.17503 -1.8044,12.39006 -2.58278,18.60245 -0.63477,6.12549 -1.28552,12.24399 -2.14391,18.34281 -0.58793,4.56222 -1.3252,9.10248 -2.06782,13.64121 -0.43604,3.54998 -1.08138,7.06961 -1.54355,10.61569 -0.20127,3.06716 -0.65583,6.10518 -1.00585,9.15659 -0.18949,1.66754 -0.62113,3.2794 -1.11971,4.8758 0,0 -13.0854,6.15766 -13.0854,6.15766 l 0,0 c 0.51623,-1.52932 1.05246,-3.04102 1.29795,-4.64578 0.36766,-3.06385 0.88341,-6.10626 1.05835,-9.1897 0.40842,-3.59219 1.1775,-7.12591 1.60446,-10.71669 0.77943,-4.55006 1.58099,-9.10137 2.18799,-13.67693 0.99971,-6.09499 1.72601,-12.22346 2.29631,-18.37353 0.75604,-6.20379 1.47739,-12.41203 2.45715,-18.58612 0.61451,-4.41786 1.64697,-8.74999 2.39991,-13.14162 0,0 13.17474,-6.18735 13.17474,-6.18735 z"
       inkscape:connector-curvature="0" />
    <path
       style="display:inline;opacity:1;fill:#ffffff;fill-opacity:1;fill-rule:nonzero;stroke:none;stroke-width:0.30000001;stroke-miterlimit:4;stroke-dasharray:none;stroke-opacity:1"
       id="path3650"
       d="m 217.81366,160.10698 c -1.19746,3.79362 -1.91025,7.703 -2.41996,11.64021 -0.41026,4.34298 -0.58346,8.71189 -0.41645,13.07133 0.20006,3.79457 0.67448,7.55916 1.20595,11.3185 0.33744,3.2745 0.68477,6.54171 1.09367,9.8082 0.22504,3.21905 0.783,6.39694 1.13466,9.60141 0.28403,3.103 0.84399,6.16769 1.13619,9.27041 0.41251,3.11517 0.24258,6.15921 -0.3532,9.2289 -0.5148,1.96402 -0.24467,1.00783 -0.80585,2.86984 0,0 -13.02271,6.14173 -13.02271,6.14173 l 0,0 c 0.59829,-1.81485 0.29825,-0.89746 0.89982,-2.7523 0.64577,-2.94475 0.94665,-5.83172 0.53434,-8.84677 -0.27116,-3.10101 -0.80922,-6.16243 -1.10382,-9.25829 -0.34591,-3.19911 -0.91917,-6.36726 -1.12734,-9.58091 -0.40252,-3.26852 -0.80153,-6.52842 -1.05507,-9.81267 -0.48376,-3.81343 -1.02654,-7.61367 -1.19684,-11.45981 -0.25853,-4.42672 0.0336,-8.87745 0.35368,-13.29519 0.3781,-3.95673 1.19551,-7.82689 2.0186,-11.71118 0,0 13.12433,-6.23341 13.12433,-6.23341 z"
       inkscape:connector-curvature="0" />
    <path
       style="display:inline;opacity:1;fill:#ffffff;fill-opacity:1;fill-rule:nonzero;stroke:#000000;stroke-width:0;stroke-miterlimit:4;stroke-dasharray:none;stroke-opacity:1"
       id="path3652"
       d="m 249.28586,129.49297 c -1.77586,4.3136 -3.29733,8.72805 -4.61771,13.20067 -1.46438,5.65571 -2.39361,11.41873 -2.93713,17.22951 -0.35776,4.53678 0.45407,8.96062 1.91366,13.23626 1.55817,3.13506 2.69628,6.35764 3.25264,9.81039 0.23435,1.75975 0.30054,3.53463 0.38401,5.30585 0,0 -12.74146,6.55489 -12.74146,6.55489 l 0,0 c -0.0532,-1.72106 -0.10528,-3.44405 -0.31951,-5.15479 -0.49897,-3.38311 -1.56978,-6.55281 -3.05547,-9.63773 -1.48918,-4.47222 -2.42595,-9.08126 -2.0693,-13.82056 0.52257,-5.90519 1.58534,-11.72135 2.89662,-17.50173 1.2098,-4.41406 2.70837,-8.73337 4.05966,-13.10223 0,0 13.23399,-6.12053 13.23399,-6.12053 z"
       inkscape:connector-curvature="0" />
    <path
       style="display:inline;opacity:1;fill:#ffffff;fill-opacity:1;fill-rule:nonzero;stroke:#000000;stroke-width:0;stroke-miterlimit:4;stroke-dasharray:none;stroke-opacity:1"
       id="path3654"
       d="m 261.06739,137.34731 c -1.05246,2.75738 -1.57359,5.70273 -2.12534,8.59555 -0.58049,3.27899 -0.70084,6.60991 -0.78396,9.93095 -0.0539,3.18113 -0.0421,6.36322 -0.0234,9.54468 -0.12439,2.47266 -0.45427,4.92771 -0.66155,7.39412 0,0 -12.89294,6.42992 -12.89294,6.42992 l 0,0 c 0.21601,-2.43504 0.50104,-4.86187 0.74356,-7.29396 0.008,-3.19644 -0.003,-6.39294 0.0367,-9.58925 0.0635,-3.38783 0.17978,-6.78179 0.69347,-10.13683 0.49998,-2.93544 1.13866,-5.84778 1.77946,-8.75465 0,0 13.234,-6.12053 13.234,-6.12053 z"
       inkscape:connector-curvature="0" />
    <path
       style="display:inline;opacity:1;fill:#ffffff;fill-opacity:1;fill-rule:nonzero;stroke:#000000;stroke-width:0;stroke-miterlimit:4;stroke-dasharray:none;stroke-opacity:1"
       id="path3656"
       d="m 279.6918,99.141411 c -1.63856,4.100629 -2.48762,8.440089 -3.15901,12.785929 -0.67364,5.60449 -0.88499,11.26442 -0.76153,16.90508 0.25012,5.49673 1.32453,10.88693 2.42107,16.26165 0.78856,3.75131 1.63609,7.48154 2.14525,11.28328 0.36135,2.44524 0.37425,4.8914 0.15946,7.34629 0,0 -12.89665,6.40717 -12.89665,6.40717 l 0,0 c 0.27615,-2.36656 0.33709,-4.71226 0.0303,-7.08551 -0.40781,-3.80188 -1.22808,-7.52051 -1.93164,-11.27441 -1.05364,-5.47142 -2.05956,-10.9555 -2.41936,-16.52736 -0.20975,-5.70067 0.0154,-11.41119 0.59031,-17.08744 0.56142,-4.33425 1.39714,-8.63476 2.64705,-12.82732 0,0 13.17474,-6.187359 13.17474,-6.187359 z"
       inkscape:connector-curvature="0" />
    <path
       style="display:inline;opacity:1;fill:#ffffff;fill-opacity:1;fill-rule:nonzero;stroke:#000000;stroke-width:0;stroke-miterlimit:4;stroke-dasharray:none;stroke-opacity:1"
       id="path3658"
       d="m 288.66382,112.67421 c -0.15227,3.50115 -0.14054,7.00718 -0.12069,10.51085 9.4e-4,0.61112 0.003,1.22225 0.004,1.83338 0,0 -12.74395,6.49339 -12.74395,6.49339 l 0,0 c 9.4e-4,-0.61258 0.003,-1.22517 0.004,-1.83773 0.0195,-3.46265 0.0343,-6.9279 -0.12067,-10.38791 0,0 12.97671,-6.61198 12.97671,-6.61198 z"
       inkscape:connector-curvature="0" />
    <path
       style="display:inline;opacity:1;fill:#ffffff;fill-opacity:1;fill-rule:nonzero;stroke:#000000;stroke-width:0;stroke-miterlimit:4;stroke-dasharray:none;stroke-opacity:1"
       id="path3660"
       d="m 480.37862,142.90895 c 2.31182,4.39248 4.73093,8.7253 7.01418,13.13498 2.56936,4.7493 5.29268,9.42511 7.65293,14.28356 2.03866,4.00586 3.56731,8.21135 4.57316,12.58465 1.02666,4.32667 1.48965,8.74383 1.78051,13.17154 0.38699,3.60203 0.0526,7.16434 -0.58511,10.7094 -0.4368,3.22012 -1.47887,6.30039 -2.54092,9.35629 -0.87647,2.32527 -1.42378,4.58154 -0.71833,7.0036 0.85861,2.18338 2.6369,3.71073 4.29965,5.28183 0,0 -12.19667,7.52619 -12.19667,7.52619 l 0,0 c -1.86141,-1.74048 -3.80405,-3.42889 -4.76689,-5.8616 -0.94103,-2.82028 -0.70327,-5.0921 0.35276,-7.85989 1.07942,-2.99905 2.236,-5.99854 2.68785,-9.17226 0.63819,-3.45795 1.16334,-6.90853 0.81011,-10.44118 -0.22129,-4.36495 -0.61575,-8.72583 -1.6513,-12.98483 -0.90165,-4.30067 -2.45504,-8.37212 -4.39247,-12.31675 -2.26214,-4.88441 -4.92555,-9.57504 -7.46297,-14.31953 -2.36195,-4.34963 -4.70239,-8.70781 -7.42416,-12.84749 0,0 12.56767,-7.24851 12.56767,-7.24851 z"
       inkscape:connector-curvature="0" />
    <path
       style="display:inline;opacity:1;fill:#ffffff;fill-opacity:1;fill-rule:nonzero;stroke:none;stroke-width:0.30000001;stroke-miterlimit:4;stroke-dasharray:none;stroke-opacity:1"
       id="path3662"
       d="m 502.69463,183.36329 c -0.30689,4.03261 -0.0156,8.0627 0.25079,12.08663 0.52411,4.41462 0.9771,8.83615 1.59392,13.23943 0.39882,3.73316 1.08,7.41208 1.99006,11.05264 1.05794,3.60156 2.61193,7.04661 4.15493,10.46399 1.56814,3.23735 3.42818,6.31601 5.53407,9.22885 2.30484,3.11226 5.2223,5.70078 8.36704,7.93458 1.69306,0.98294 0.84832,0.55429 2.52546,1.30307 0,0 -12.03303,7.9244 -12.03303,7.9244 l 0,0 c -1.72714,-0.93554 -0.86059,-0.41833 -2.59205,-1.56436 -3.16377,-2.43837 -6.16478,-5.11612 -8.56647,-8.33022 -2.15414,-2.9965 -4.12057,-6.11974 -5.69221,-9.46693 -1.58422,-3.49143 -3.11983,-7.03188 -4.25254,-10.69663 -0.95693,-3.68678 -1.75109,-7.40419 -2.03587,-11.21075 -0.59892,-4.44326 -1.03254,-8.90261 -1.5824,-13.35261 -0.29412,-3.99924 -0.59144,-7.98973 -0.63843,-12.00012 0,0 12.97673,-6.61197 12.97673,-6.61197 z"
       inkscape:connector-curvature="0" />
    <path
       style="display:inline;opacity:1;fill:#ffffff;fill-opacity:1;fill-rule:nonzero;stroke:none;stroke-width:0.30000001;stroke-miterlimit:4;stroke-dasharray:none;stroke-opacity:1"
       id="path3664"
       d="m 505.86741,190.67305 c 2.59159,3.69823 4.54693,7.77475 6.55994,11.80168 2.562,5.01244 3.83201,10.45972 4.8026,15.96287 0.79157,5.2165 0.88615,10.49893 1.01751,15.76281 -0.15044,4.24728 -0.5115,8.48383 -0.76188,12.72635 -0.39252,4.67218 -0.0573,8.25857 1.3656,12.72393 1.54646,4.57716 4.52706,8.42488 7.7104,11.98257 1.25056,1.49645 2.72892,2.66359 4.34764,3.7187 0,0 -12.0749,7.69458 -12.0749,7.69458 l 0,0 c -1.62256,-1.20542 -3.12661,-2.50302 -4.41731,-4.0755 -3.25217,-3.74079 -6.32363,-7.76515 -7.98358,-12.49029 -0.55239,-1.64685 -1.04911,-2.94906 -1.38589,-4.6577 -0.55189,-2.80012 -0.39139,-5.66086 -0.28049,-8.49004 0.1435,-4.23495 0.63312,-8.44393 0.84851,-12.67515 -0.008,-5.21273 -0.11189,-10.442 -0.83141,-15.61313 -0.87479,-5.37566 -2.13007,-10.70572 -4.6179,-15.59218 -1.95091,-3.94292 -3.88867,-7.9625 -6.79086,-11.31324 0,0 12.49202,-7.46626 12.49202,-7.46626 z"
       inkscape:connector-curvature="0" />
    <path
       style="display:inline;opacity:1;fill:#ffffff;fill-opacity:1;fill-rule:nonzero;stroke:none;stroke-width:0.30000001;stroke-miterlimit:4;stroke-dasharray:none;stroke-opacity:1"
       id="path3666"
       d="m 515.75335,207.29938 c 1.4167,1.90531 3.06387,3.67693 4.24944,5.74644 0.77727,1.35677 1.29197,2.65521 1.91037,4.08499 1.76397,3.76024 2.58082,7.73242 2.97547,11.83441 0.61868,3.96597 0.82243,7.971 1.1579,11.96496 0.30653,4.66553 1.34098,9.21834 2.6922,13.67933 1.26394,4.33787 3.46571,8.28426 5.63332,12.21636 2.12441,3.51816 4.80136,6.62523 7.69398,9.52504 0.47995,0.42532 0.95988,0.85067 1.43981,1.27599 0,0 -12.13061,7.52121 -12.13061,7.52121 l 0,0 c -0.49339,-0.45114 -0.98677,-0.90228 -1.48015,-1.35343 -2.9365,-3.03217 -5.69997,-6.23524 -7.85583,-9.88371 -2.2007,-4.0237 -4.42564,-8.08272 -5.75345,-12.49572 -1.33097,-4.55156 -2.50644,-9.15906 -2.84641,-13.91015 -0.42217,-3.98084 -0.58452,-7.98832 -1.19209,-11.95125 -0.35038,-3.95303 -1.06328,-7.82243 -2.73538,-11.45853 -1.46382,-3.45354 -3.38754,-6.61642 -6.15175,-9.20138 0,0 12.39318,-7.59456 12.39318,-7.59456 z"
       inkscape:connector-curvature="0" />
    <path
       style="display:inline;opacity:1;fill:#ffffff;fill-opacity:1;fill-rule:nonzero;stroke:#000000;stroke-width:0;stroke-miterlimit:4;stroke-dasharray:none;stroke-opacity:1"
       id="path3668"
       d="m 536.24183,215.2982 c 1.64072,3.28182 3.47907,6.4606 5.08067,9.76035 0,0 -12.3459,7.02783 -12.3459,7.02783 l 0,0 c -1.6538,-3.22644 -3.39302,-6.42244 -5.33937,-9.4826 0,0 12.6046,-7.30558 12.6046,-7.30558 z"
       inkscape:connector-curvature="0" />
    <path
       style="display:inline;opacity:1;fill:#ffffff;fill-opacity:1;fill-rule:nonzero;stroke:#000000;stroke-width:0;stroke-miterlimit:4;stroke-dasharray:none;stroke-opacity:1"
       id="path3670"
       d="m 352.46825,146.17877 c -0.13859,3.95934 -0.16472,7.92304 -0.1519,11.88474 -0.0602,4.73191 0.10101,9.46631 -0.10666,14.19484 -0.28248,4.02103 -0.45259,8.04825 -0.94895,12.04994 -0.42147,3.14612 -0.6031,6.31269 -1.01115,9.46001 -0.31357,3.29179 -1.09464,6.48157 -2.09514,9.62229 -1.07367,3.30969 -2.58474,6.45067 -3.85383,9.68706 -0.66659,1.99774 -0.33638,1.00806 -0.99058,2.96903 0,0 -13.01733,6.09354 -13.01733,6.09354 l 0,0 c 0.70738,-1.95853 0.36721,-0.95146 1.01504,-3.02303 1.18202,-3.24854 2.73268,-6.3432 3.8685,-9.60701 0.9662,-3.07814 1.96537,-6.14454 2.18574,-9.39427 0.45272,-3.15034 0.6107,-6.32241 1.05939,-9.47391 0.54513,-3.98737 0.82092,-7.99342 1.11795,-12.00739 0.26513,-4.70279 0.0876,-9.41777 0.12824,-14.12625 0.0125,-3.91007 -0.011,-7.82233 -0.1519,-11.72994 0,0 12.95256,-6.59965 12.95256,-6.59965 z"
       inkscape:connector-curvature="0" />
    <path
       style="display:inline;opacity:1;fill:#ffffff;fill-opacity:1;fill-rule:nonzero;stroke:#000000;stroke-width:0;stroke-miterlimit:4;stroke-dasharray:none;stroke-opacity:1"
       id="path3672"
       d="m 367.1425,129.11424 c -1.3484,4.60404 -1.8504,9.35229 -2.21261,14.09509 -0.45372,4.53307 -1.02075,9.05352 -1.29236,13.60042 -0.2001,3.63954 -0.20046,7.28487 -0.22872,10.92805 -0.0743,3.82074 -0.99028,7.54487 -1.99252,11.23011 -0.65375,2.35187 -1.61851,4.61323 -2.63044,6.8479 0,0 -16.40194,6.96634 -16.40194,6.96634 l 0,0 c 1.09753,-2.13702 2.09396,-4.33347 2.79978,-6.61186 1.01993,-3.56619 2.00125,-7.14727 2.18955,-10.85301 -0.009,-3.67651 0.0172,-7.3541 0.21382,-11.02695 0.30993,-4.58349 0.84504,-9.14136 1.47151,-13.69691 0.3121,-4.70258 0.69007,-9.41219 1.69131,-14.04019 0,0 16.39262,-7.43899 16.39262,-7.43899 z"
       inkscape:connector-curvature="0" />
    <path
       style="display:inline;opacity:1;fill:#ffffff;fill-opacity:1;fill-rule:nonzero;stroke:#000000;stroke-width:0;stroke-miterlimit:4;stroke-dasharray:none;stroke-opacity:1"
       id="path3674"
       d="m 387.20093,118.56496 c -0.4159,3.68004 -0.99645,7.34198 -1.46475,11.01638 -0.58541,5.35393 -2.20485,10.50192 -4.15303,15.5587 -2.44306,5.94244 -5.39381,11.6944 -8.20499,17.4968 -1.92841,4.08611 -4.23752,8.00928 -6.20328,12.07936 -1.30017,2.64145 -2.33799,5.37645 -3.36197,8.11262 -1.1729,2.8559 -1.90168,5.82569 -2.60699,8.79806 -0.58658,2.51008 -0.8496,5.06338 -1.01882,7.62001 0,0 -13.65509,6.21515 -13.65509,6.21515 l 0,0 c 0.1938,-2.62462 0.45472,-5.25163 1.02028,-7.83513 0.64939,-3.00724 1.31078,-6.01562 2.39124,-8.92424 1.15453,-2.74313 2.06712,-5.57678 3.45201,-8.23898 1.92,-4.17524 4.46424,-8.07837 6.48601,-12.21351 2.80748,-5.77096 5.8165,-11.46678 8.22354,-17.39101 1.9315,-4.94229 3.6131,-9.96362 4.15019,-15.21368 0.41786,-3.57204 0.93727,-7.13044 1.18336,-10.71701 0,0 13.76229,-6.36351 13.76229,-6.36351 z"
       inkscape:connector-curvature="0" />
    <path
       style="display:inline;opacity:1;fill:#ffffff;fill-opacity:1;fill-rule:nonzero;stroke:none;stroke-width:0.30000001;stroke-miterlimit:4;stroke-dasharray:none;stroke-opacity:1"
       id="path3676"
       d="m 396.45754,129.87863 c -1.37718,6.1555 -2.74026,12.31394 -4.15269,18.46267 -1.76981,8.64519 -3.74559,17.23119 -6.17454,25.73023 -2.50951,8.65773 -6.44413,16.83255 -10.17682,25.04916 -2.92631,6.09912 -5.85215,12.19771 -8.74109,18.31312 -1.65835,3.42328 -3.2901,6.85794 -4.955,10.27837 0,0 -13.72607,5.97604 -13.72607,5.97604 l 0,0 c 1.70647,-3.49094 3.56726,-6.91331 5.26376,-10.40987 3.05445,-6.12875 5.97696,-12.31847 9.07609,-18.42767 3.78484,-8.15437 7.76547,-16.27198 10.29634,-24.8865 2.49673,-8.44398 4.47954,-16.99428 6.14645,-25.6229 1.29223,-6.03331 2.69528,-12.05761 3.49373,-18.17394 0,0 13.64984,-6.28871 13.64984,-6.28871 z"
       inkscape:connector-curvature="0" />
    <path
       style="display:inline;opacity:1;fill:#ffffff;fill-opacity:1;fill-rule:nonzero;stroke:#000000;stroke-width:0;stroke-miterlimit:4;stroke-dasharray:none;stroke-opacity:1"
       id="path3678"
       d="m 389.9136,131.27474 c 0.74758,4.65335 1.30298,9.33885 1.81746,14.02379 0.63567,6.29164 0.66304,12.6062 0.45546,18.91833 -0.34374,5.22166 -0.77013,10.43525 -2.07483,15.51346 -0.87645,3.29351 -2.00966,6.49994 -3.45647,9.58341 0,0 -13.11602,5.9599 -13.11602,5.9599 l 0,0 c 1.49445,-3.04831 2.84145,-6.14066 3.73383,-9.43231 1.48162,-4.98914 1.99985,-10.15203 2.43351,-15.32675 0.28132,-6.23294 0.1885,-12.46785 -0.46285,-18.67969 -0.50442,-4.55576 -1.032,-9.14248 -2.08733,-13.60624 0,0 12.75724,-6.9539 12.75724,-6.9539 z"
       inkscape:connector-curvature="0" />
    <path
       style="display:inline;opacity:1;fill:#ffffff;fill-opacity:1;fill-rule:nonzero;stroke:#000000;stroke-width:0;stroke-miterlimit:4;stroke-dasharray:none;stroke-opacity:1"
       id="path3680"
       d="m 400.58819,130.34648 c -0.11065,3.81082 -0.14918,7.61337 -0.40791,11.41835 -0.37475,4.50022 -1.55171,8.86647 -3.07479,13.10097 -2.09065,5.01294 -4.2729,9.98771 -6.43289,14.97139 -2.13835,5.01367 -4.12641,10.08994 -6.26933,15.1015 -0.23497,0.55358 -0.46995,1.10717 -0.70493,1.66074 0,0 -13.00041,5.96401 -13.00041,5.96401 l 0,0 c 0.25395,-0.56742 0.50791,-1.13485 0.76187,-1.70227 2.3316,-4.97898 4.35355,-10.09278 6.46523,-15.16729 2.10668,-4.9507 4.18015,-9.91256 6.33039,-14.84467 1.56378,-4.10067 2.72332,-8.35002 3.20484,-12.72184 0.30119,-3.71965 0.38421,-7.44059 0.1512,-11.16892 0,0 12.97673,-6.61197 12.97673,-6.61197 z"
       inkscape:connector-curvature="0" />
    <path
       style="display:inline;opacity:1;fill:#ffffff;fill-opacity:1;fill-rule:nonzero;stroke:#000000;stroke-width:0;stroke-miterlimit:4;stroke-dasharray:none;stroke-opacity:1"
       id="path3682"
       d="m 399.75964,127.49252 c 0.94526,5.56826 1.11023,11.23138 1.27509,16.86761 0.31651,7.23176 -0.16499,14.46115 -0.95361,21.6446 -0.723,6.06876 -2.11231,12.00761 -3.82887,17.85439 -1.36455,4.22962 -3.14085,8.3041 -5.11729,12.26871 -1.13442,2.11212 -2.33675,4.17896 -3.38703,6.33679 0,0 -12.81034,5.9333 -12.81034,5.9333 l 0,0 c 1.0275,-2.21187 2.21894,-4.32489 3.46681,-6.4153 2.02565,-3.91518 3.83648,-7.9299 5.32542,-12.09326 1.84705,-5.77865 3.34692,-11.66856 4.12439,-17.70626 0.82408,-7.12391 1.4115,-14.29646 1.08388,-21.47601 -0.23498,-5.45711 -0.38123,-10.98976 -1.68008,-16.31568 0,0 12.50163,-6.89889 12.50163,-6.89889 z"
       inkscape:connector-curvature="0" />
    <path
       style="display:inline;opacity:1;fill:#ffffff;fill-opacity:1;fill-rule:nonzero;stroke:#000000;stroke-width:0;stroke-miterlimit:4;stroke-dasharray:none;stroke-opacity:1"
       id="path3684"
       d="m 408.56768,116.69282 c 1.21861,4.59103 2.53922,9.13679 3.4647,13.80102 0.86537,4.61655 1.75974,9.22782 2.78126,13.81257 0.7869,3.38105 1.55341,6.75535 2.0117,10.19833 0.24045,2.54271 0.40068,5.10019 0.29751,7.65331 0,0 -12.88809,6.44951 -12.88809,6.44951 l 0,0 c 0.2658,-2.4691 0.0622,-4.95532 -0.13155,-7.42585 -0.37482,-3.42934 -1.13494,-6.77328 -1.83624,-10.14627 -0.94483,-4.62288 -1.888,-9.24424 -2.69216,-13.89416 -0.855,-4.63028 -2.10941,-9.13799 -3.76435,-13.54961 0,0 12.75727,-6.89885 12.75727,-6.89885 z"
       inkscape:connector-curvature="0" />
    <path
       style="display:inline;opacity:1;fill:#ffffff;fill-opacity:1;fill-rule:nonzero;stroke:#000000;stroke-width:0;stroke-miterlimit:4;stroke-dasharray:none;stroke-opacity:1"
       id="path3686"
       d="m 424.15121,122.49215 c -0.16275,3.69146 -0.15545,7.38854 -0.13484,11.08278 0.12426,4.34254 -0.1222,8.66374 -0.45216,12.99054 -0.14652,5.65012 -1.33006,11.15489 -2.6774,16.61753 -1.30381,5.03758 -3.35874,9.83452 -5.38018,14.61543 -1.39437,3.49959 -3.10378,6.84724 -4.9889,10.10362 -1.21314,1.9942 -0.62589,0.99847 -1.76326,2.98627 0,0 -13.07648,5.85565 -13.07648,5.85565 l 0,0 c 1.09098,-2.06953 0.50273,-1.06043 1.76444,-3.02746 1.89722,-3.22734 3.73304,-6.48884 5.1229,-9.97574 2.09539,-4.75063 4.27792,-9.48758 5.68596,-14.5008 1.32758,-5.3562 2.5629,-10.77342 2.62105,-16.32154 0.28706,-4.28768 0.6073,-8.56655 0.43704,-12.86896 0.0202,-3.64841 0.0308,-7.29988 -0.13484,-10.94537 0,0 12.97673,-6.61195 12.97673,-6.61195 z"
       inkscape:connector-curvature="0" />
    <path
       style="display:inline;opacity:1;fill:#ffffff;fill-opacity:1;fill-rule:nonzero;stroke:#000000;stroke-width:0;stroke-miterlimit:4;stroke-dasharray:none;stroke-opacity:1"
       id="path3688"
       d="m 415.1792,138.41313 c -1.65037,3.9358 -3.31499,7.86416 -5.00219,11.78455 -1.90997,4.74256 -4.05214,9.38444 -6.06922,14.08047 -1.82007,4.43957 -3.44449,8.95487 -5.14253,13.44121 -0.85504,2.35471 -0.46351,1.20089 -1.18228,3.45885 0,0 -12.95212,6.1071 -12.95212,6.1071 l 0,0 c 0.73797,-2.34682 0.33678,-1.1519 1.21064,-3.58241 1.83835,-4.46202 3.41325,-9.02832 5.20359,-13.51005 1.98959,-4.71734 4.22248,-9.33117 6.09957,-14.09859 1.62418,-3.80257 3.1908,-7.63034 4.65981,-11.49377 0,0 13.17473,-6.18736 13.17473,-6.18736 z"
       inkscape:connector-curvature="0" />
    <path
       style="display:inline;opacity:1;fill:#ffffff;fill-opacity:1;fill-rule:nonzero;stroke:#000000;stroke-width:0;stroke-miterlimit:4;stroke-dasharray:none;stroke-opacity:1"
       id="path3690"
       d="m 408.44252,157.83666 c -0.0465,3.20194 -0.61004,6.35299 -1.31079,9.4669 -0.68765,3.40996 -2.00219,6.63886 -3.08737,9.93117 -0.77462,2.4204 -1.60658,4.81962 -2.56142,7.17489 0,0 -13.10693,6.01609 -13.10693,6.01609 l 0,0 c 1.06551,-2.29923 1.90339,-4.68926 2.72167,-7.08597 0.99773,-3.29489 2.38517,-6.46224 3.13187,-9.83008 0.71424,-2.9589 1.38385,-6.00157 1.23624,-9.061 0,0 12.97673,-6.612 12.97673,-6.612 z"
       inkscape:connector-curvature="0" />
    <path
       style="display:inline;opacity:1;fill:#ffffff;fill-opacity:1;fill-rule:nonzero;stroke:#000000;stroke-width:0;stroke-miterlimit:4;stroke-dasharray:none;stroke-opacity:1"
       id="path3692"
       d="m 287.86579,120.23612 c 1.52584,3.53623 3.26051,6.92909 5.31368,10.18712 2.63653,4.00954 6.19152,7.28345 9.60041,10.61946 3.4015,3.05257 6.58757,6.32549 9.95289,9.41797 3.27502,2.87725 6.57374,5.71765 9.68885,8.7701 1.31788,1.33484 2.21719,2.89661 3.03693,4.55817 0,0 -12.47945,7.08102 -12.47945,7.08102 l 0,0 c -0.71597,-1.5288 -1.50479,-2.96538 -2.71231,-4.17993 -3.07365,-3.0574 -6.37795,-5.85663 -9.58366,-8.77185 -3.39112,-3.0916 -6.61897,-6.35033 -10.00919,-9.44264 -3.47132,-3.42729 -6.98236,-6.87906 -9.78231,-10.89331 -2.07844,-3.28907 -3.78516,-6.75116 -5.66547,-10.1493 0,0 12.63963,-7.19681 12.63963,-7.19681 z"
       inkscape:connector-curvature="0" />
    <path
       style="display:inline;opacity:1;fill:#ffffff;fill-opacity:1;fill-rule:nonzero;stroke:#000000;stroke-width:0;stroke-miterlimit:4;stroke-dasharray:none;stroke-opacity:1"
       id="path3694"
       d="m 276.06677,113.19176 c 1.54535,3.13371 3.54882,5.99465 5.57969,8.82527 2.54416,3.64925 5.61078,6.85069 8.69208,10.03607 3.19348,3.20498 6.38514,6.41181 9.53518,9.66167 2.85375,2.93134 5.16369,6.2863 6.90245,9.97937 1.24174,2.82241 1.3738,5.91296 1.45515,8.94742 0.004,0.55918 0.009,1.11836 0.0137,1.67754 0,0 -12.77272,6.52492 -12.77272,6.52492 l 0,0 c -0.007,-0.54919 -0.0141,-1.09837 -0.0211,-1.64756 -0.076,-2.85038 -0.12522,-5.75633 -1.17478,-8.45072 -1.55212,-3.60269 -3.77098,-6.82517 -6.5271,-9.62504 -3.15909,-3.24331 -6.33291,-6.47012 -9.54524,-9.65982 -3.12365,-3.23366 -6.19766,-6.51423 -8.78331,-10.2096 -2.11012,-2.8397 -4.1322,-5.72034 -5.95855,-8.75395 0,0 12.60461,-7.30557 12.60461,-7.30557 z"
       inkscape:connector-curvature="0" />
    <path
       style="display:inline;opacity:1;fill:#ffffff;fill-opacity:1;fill-rule:nonzero;stroke:#000000;stroke-width:0;stroke-miterlimit:4;stroke-dasharray:none;stroke-opacity:1"
       id="path3698"
       d="m 510.53689,199.19556 c -0.18984,4.33819 -0.16643,8.68477 -0.1679,13.02667 -0.15677,5.25856 -0.0599,10.46647 0.76336,15.66509 0.8432,4.19823 2.38874,8.20003 3.36901,12.36104 0.6301,3.12393 1.60259,6.09637 2.95558,8.97576 1.9001,3.36704 3.98723,6.62644 6.13371,9.84081 1.99197,3.00104 3.08035,6.24278 2.99548,9.83775 -0.11917,1.57912 -0.42172,3.12866 -0.74771,4.67457 0,0 -12.9537,6.22751 -12.9537,6.22751 l 0,0 c 0.38445,-1.47159 0.66553,-2.94841 0.86887,-4.45725 0.32378,-3.31173 -0.69119,-6.27978 -2.48788,-9.06722 -2.1522,-3.29047 -4.27447,-6.60322 -6.28806,-9.98049 -1.43759,-2.9636 -2.48748,-6.02378 -3.08934,-9.27095 -0.89401,-4.22377 -2.35378,-8.29607 -3.21626,-12.52972 -0.92829,-5.25155 -1.04129,-10.52296 -0.91983,-15.84833 -9.4e-4,-4.28481 0.0245,-8.57471 -0.16789,-12.85557 0,0 12.95256,-6.59967 12.95256,-6.59967 z"
       inkscape:connector-curvature="0" />
    <path
       style="display:inline;opacity:1;fill:#ffffff;fill-opacity:1;fill-rule:nonzero;stroke:#000000;stroke-width:0;stroke-miterlimit:4;stroke-dasharray:none;stroke-opacity:1"
       id="path3700"
       d="m 542.93605,263.01209 c -0.34778,4.30162 0.1178,8.54043 1.00145,12.74459 1.01139,4.70373 3.24181,8.94662 5.41889,13.18483 2.13933,3.58903 4.22234,7.16527 5.40925,11.18932 1.04407,3.4146 0.25377,6.59904 -1.22559,9.72513 -2.02771,3.53499 -4.66805,6.67706 -7.24617,9.81864 -2.28254,2.46027 -4.20233,5.16598 -5.7925,8.1132 -0.34697,0.76335 -0.62011,1.28657 -0.85224,2.08899 -0.0755,0.26086 -0.1362,0.52824 -0.1602,0.79875 -0.004,0.0458 0.0772,0.15835 0.0794,0.11257 0.0148,-0.31853 0.24899,-1.09045 -0.04,-0.95579 -4.06179,1.89216 -7.85735,4.30992 -11.78602,6.46489 2.87671,-4.31031 4.28211,-9.52768 5.87384,-14.42203 2.0685,-6.85244 4.19176,-13.6962 5.76633,-20.682 1.09033,-4.93479 2.00488,-9.9128 2.73391,-14.91397 0.47305,-3.26626 0.62267,-6.56357 0.67341,-9.8594 0.003,-0.40892 0.005,-0.81781 0.007,-1.22672 0,0 12.87489,-6.54008 12.87489,-6.54008 l 0,0 c -0.008,0.41681 -0.0155,0.83364 -0.0232,1.25046 -0.0964,3.37817 -0.2603,6.75852 -0.75417,10.10588 -0.80159,5.07094 -1.73224,10.1227 -2.91825,15.11913 -1.62333,7.01923 -3.77525,13.89556 -5.78372,20.81174 -1.49429,4.97546 -3.03963,9.97114 -5.09411,14.74662 -4.39391,2.669 -8.60648,5.66243 -13.18175,8.00699 -0.377,0.1932 -0.76864,-0.39809 -1.05211,-0.71291 -1.05961,-1.17684 0.10585,-3.09404 0.49383,-4.26893 1.53566,-3.08815 3.4348,-5.96411 5.8262,-8.46565 2.57121,-3.05357 5.13105,-6.15448 7.29089,-9.51487 1.59794,-2.70204 2.5252,-5.61472 1.7048,-8.74836 -1.05176,-3.96867 -3.01943,-7.49633 -5.13229,-10.99777 -2.33354,-4.30958 -4.41553,-8.75276 -5.53015,-13.55528 -0.98319,-4.21994 -1.54807,-8.47534 -1.53442,-12.81824 0,0 12.95257,-6.59964 12.95257,-6.59964 z"
       inkscape:connector-curvature="0" />
    <path
       style="display:inline;opacity:1;fill:#ffffff;fill-opacity:1;fill-rule:nonzero;stroke:none;stroke-width:0.30000001;stroke-miterlimit:4;stroke-dasharray:none;stroke-opacity:1"
       id="path3702"
       d="m 553.58677,258.28624 c -1.23865,4.15547 -2.08567,8.41316 -2.98267,12.65144 -0.96813,4.55858 -1.46358,9.19473 -2.29263,13.77851 -0.76375,3.71659 -1.92628,7.33147 -2.73962,11.03554 -0.52973,2.54215 -1.17838,5.0566 -2.23613,7.43291 0,0 -13.18898,6.01029 -13.18898,6.01029 l 0,0 c 1.12434,-2.30268 2.01294,-4.66257 2.50807,-7.19514 0.75155,-3.73821 2.01823,-7.34422 2.8739,-11.05946 0.85438,-4.60746 1.43952,-9.25757 2.35377,-13.85296 0.89383,-4.1818 1.70307,-8.38256 2.57997,-12.5677 0,0 13.12432,-6.23343 13.12432,-6.23343 z"
       inkscape:connector-curvature="0" />
    <path
       style="display:inline;opacity:1;fill:#ffffff;fill-opacity:1;fill-rule:nonzero;stroke:#000000;stroke-width:0;stroke-miterlimit:4;stroke-dasharray:none;stroke-opacity:1"
       id="path3704"
       d="m 174.9702,237.60749 c 1.90918,2.48017 3.74159,5.02232 5.40475,7.67466 1.57863,2.91438 2.33948,6.1132 2.77741,9.37035 0.49941,3.87837 0.0687,7.77812 -0.22071,11.65427 -0.27967,3.77141 -0.33437,7.55325 -0.3797,11.33301 -0.17152,3.14942 0.0458,6.22142 0.63086,9.31217 0.81849,3.32538 2.27428,6.42843 3.23528,9.71185 0.79145,3.37878 0.93095,6.85286 1.01698,10.30735 0.0506,3.21475 0.0323,6.42986 0.0371,9.64483 -0.0125,1.46194 -0.004,2.92394 0.003,4.38587 0,0 -12.83721,6.53793 -12.83721,6.53793 l 0,0 c 0.0125,-1.46663 0.0255,-2.93328 0.0219,-4.39998 0.0243,-3.21 0.0453,-6.4205 0.0125,-9.63047 -0.0618,-3.34073 -0.12782,-6.70729 -0.85875,-9.98335 -0.89335,-3.34882 -2.39737,-6.46612 -3.27442,-9.81761 -0.65494,-3.18178 -1.04391,-6.31657 -0.76761,-9.57764 0.055,-3.81603 0.18763,-7.63085 0.41417,-11.44071 0.24518,-3.78197 0.75529,-7.57687 0.27283,-11.36269 -0.37929,-3.06904 -1.03273,-6.07177 -2.51474,-8.82141 -1.55978,-2.58714 -3.27547,-5.12283 -5.399,-7.28383 0,0 12.4259,-7.6146 12.4259,-7.6146 z"
       inkscape:connector-curvature="0" />
    <path
       style="display:inline;opacity:1;fill:#ffffff;fill-opacity:1;fill-rule:nonzero;stroke:#000000;stroke-width:0;stroke-miterlimit:4;stroke-dasharray:none;stroke-opacity:1"
       id="path3706"
       d="m 176.73944,281.54255 c -0.16918,3.92504 -0.1545,7.8554 -0.17602,11.78328 0.008,4.73534 -0.007,9.47048 0.0154,14.20587 0.12975,4.20344 1.25381,8.16585 2.93574,11.98359 1.71131,2.85609 2.95851,5.83251 3.56365,9.10355 0.64235,3.28124 1.04363,6.59767 1.26002,9.93218 0.20428,2.9401 0.0725,5.89579 0.28915,8.83285 0.0817,0.3557 0.16365,0.71141 0.24546,1.06709 0,0 -12.71718,6.85978 -12.71718,6.85978 l 0,0 c -0.10418,-0.42348 -0.20842,-0.84696 -0.31261,-1.2704 -0.30054,-2.95446 -0.0489,-5.93162 -0.25587,-8.89488 -0.18444,-3.28308 -0.48752,-6.56201 -1.1966,-9.77981 -0.53248,-3.1715 -1.691,-6.06563 -3.32164,-8.84373 -1.76373,-3.99944 -2.88196,-8.15635 -3.14568,-12.54188 0.0223,-4.74066 0.008,-9.48101 0.0154,-14.22164 -0.0213,-3.86804 -0.004,-7.73877 -0.17602,-11.60387 0,0 12.9767,-6.61198 12.9767,-6.61198 z"
       inkscape:connector-curvature="0" />
    <path
       style="display:inline;opacity:1;fill:#ffffff;fill-opacity:1;fill-rule:nonzero;stroke:#000000;stroke-width:0;stroke-miterlimit:4;stroke-dasharray:none;stroke-opacity:1"
       id="path3708"
       d="m 191.65011,237.06946 c 1.43922,3.56337 1.88353,7.38324 2.24749,11.17621 0.39021,4.65163 0.31683,9.32796 0.36265,13.99206 0.007,4.24111 0.0266,8.48223 0.0318,12.72338 0.32146,2.40445 -0.7051,5.52467 0.75706,7.65695 0,0 -12.56813,7.28721 -12.56813,7.28721 l 0,0 c -1.44312,-2.60233 -0.87158,-5.59793 -0.91348,-8.4629 0.017,-4.25404 0.0587,-8.50789 0.0579,-12.762 0.0167,-4.62206 -0.0215,-9.24791 -0.33919,-13.86102 -0.32248,-3.58767 -0.6779,-7.26868 -2.27588,-10.55307 0,0 12.63964,-7.19682 12.63964,-7.19682 z"
       inkscape:connector-curvature="0" />
    <path
       style="display:inline;opacity:1;fill:#ffffff;fill-opacity:1;fill-rule:nonzero;stroke:#000000;stroke-width:0;stroke-miterlimit:4;stroke-dasharray:none;stroke-opacity:1"
       id="path3710"
       d="m 207.16294,221.7768 c -0.21758,4.22892 -0.20007,8.45578 0.0955,12.67885 0.12535,2.05578 0.30995,4.1003 0.58462,6.14074 0,0 -12.65507,6.65378 -12.65507,6.65378 l 0,0 c -0.25768,-2.08707 -0.39474,-4.17475 -0.51411,-6.27472 -0.27546,-4.19881 -0.35744,-8.39338 -0.46356,-12.59898 0,0 12.95257,-6.59967 12.95257,-6.59967 z"
       inkscape:connector-curvature="0" />
    <path
       style="display:inline;opacity:1;fill:#5a5a5a;fill-opacity:1;fill-rule:nonzero;stroke:none;stroke-width:0.30000001;stroke-miterlimit:4;stroke-dasharray:none;stroke-opacity:1"
       id="path3781"
       d="m 369.23683,253.03256 c 5.40528,-3.65031 10.5534,-7.65795 15.94148,-11.34362 11.90498,-7.90831 24.59617,-14.49403 38.06865,-19.21018 5.24617,-1.39777 10.73191,-3.35491 16.25737,-3.09548 0.92531,0.0434 1.83899,0.22441 2.7585,0.33662 6.0506,1.04923 11.52808,3.80906 16.85945,6.72661 5.63417,3.22594 11.0386,6.8779 16.00772,11.05873 3.76354,3.05755 6.47137,6.96396 8.84548,11.13059 0.88347,1.58836 1.60306,3.25497 2.30618,4.92779 0,0 -12.51772,6.99907 -12.51772,6.99907 l 0,0 c -0.64201,-1.63864 -1.3332,-3.25287 -2.13231,-4.82278 -2.22216,-4.0525 -4.86998,-7.79066 -8.45164,-10.77912 -4.8422,-4.17094 -10.14165,-7.78748 -15.73479,-10.881 -5.26644,-2.78308 -10.70052,-5.35522 -16.66689,-6.17962 -0.88173,-0.0574 -1.76157,-0.17329 -2.64515,-0.1725 -5.34478,0.004 -10.6041,1.69979 -15.67332,3.16454 -4.52727,1.62662 -8.94502,3.39141 -13.29461,5.45636 -1.57016,0.74544 -6.0412,3.38574 -4.67279,2.31405 2.23561,-1.75082 4.84559,-2.96341 7.30791,-4.37774 1.30951,-0.75219 -2.56565,1.59376 -3.84847,2.39065 -5.18154,3.52257 -10.21133,7.22311 -15.12279,11.1132 0,0 -13.59226,5.24383 -13.59226,5.24383 z"
       inkscape:connector-curvature="0" />
    <path
       style="display:inline;opacity:1;fill:#e6bea3;fill-opacity:1;fill-rule:nonzero;stroke:none;stroke-width:0.30000001;stroke-miterlimit:4;stroke-dasharray:none;stroke-opacity:1"
       id="path3783"
       d="m 328.25603,426.16668 c 6.01255,-0.019 12.02789,-0.46338 18.03389,-0.78136 11.46299,-0.72655 22.91366,-1.61331 34.38483,-2.20788 9.43077,-0.57395 18.85405,-1.19357 28.26282,-2.05852 3.76866,-0.34435 1.96392,-0.13511 5.4165,-0.60772 0,0 -11.35402,8.45399 -11.35402,8.45399 l 0,0 c -3.37101,0.33015 -1.62022,0.18525 -5.25339,0.42239 -9.282,0.63575 -18.56568,1.21914 -27.85672,1.70989 -11.55379,0.58159 -23.08496,1.48394 -34.61666,2.39719 -6.24801,0.44699 -12.49583,0.96784 -18.75598,1.20071 0,0 11.73873,-8.52869 11.73873,-8.52869 z"
       inkscape:connector-curvature="0" />
    <path
       style="display:inline;opacity:1;fill:#5a5a5a;fill-opacity:1;fill-rule:nonzero;stroke:none;stroke-width:0.30000001;stroke-miterlimit:4;stroke-dasharray:none;stroke-opacity:1"
       id="path3785"
       d="m 234.87927,265.1447 c 4.90616,-0.49063 9.84609,-0.54902 14.77243,-0.63658 7.20556,-0.0646 14.41215,-0.37979 21.59756,0.26149 5.71847,0.49987 11.29643,1.89101 16.9742,2.68753 4.2279,0.75456 8.42359,0.0477 12.61208,-0.53079 2.65087,-0.21684 5.24514,-0.75108 7.85922,-1.21417 0,0 -11.51071,8.67078 -11.51071,8.67078 l 0,0 c -2.58962,0.44503 -5.18494,0.82416 -7.79872,1.10044 -4.2311,0.56236 -8.48025,0.92283 -12.71663,0.10886 -5.59923,-0.89372 -11.12843,-2.23553 -16.79066,-2.70555 -7.14394,-0.56107 -14.30623,-0.32712 -21.46412,-0.16847 -5.10911,0.17794 -10.21002,0.43574 -15.29534,0.97114 0,0 11.76069,-8.54464 11.76069,-8.54464 z"
       inkscape:connector-curvature="0" />
    <path
       style="display:inline;opacity:1;fill:#e6bea3;fill-opacity:1;fill-rule:nonzero;stroke:none;stroke-width:0.30000001;stroke-miterlimit:4;stroke-dasharray:none;stroke-opacity:1"
       id="path3787"
       d="m 311.9251,385.02439 c -2.38942,3.38697 -5.03669,6.56956 -7.75231,9.69616 -2.88784,3.30677 -5.85269,6.54564 -8.82297,9.77822 -2.79305,3.1305 -5.67207,6.18345 -8.46924,9.30986 -2.28368,2.66736 -4.47442,5.40668 -7.09956,7.74856 -0.44108,0.35725 -0.88217,0.71448 -1.32325,1.07171 0,0 -13.3068,5.33084 -13.3068,5.33084 l 0,0 c 0.44661,-0.34419 0.89322,-0.68841 1.33987,-1.03258 2.77064,-2.18364 4.99794,-4.88393 7.25865,-7.57931 2.74363,-3.18434 5.72264,-6.16 8.4559,-9.35577 3.04005,-3.16969 5.93912,-6.47979 8.88182,-9.74087 2.62501,-3.04157 5.32372,-6.02695 7.52512,-9.40204 0,0 13.31277,-5.82478 13.31277,-5.82478 z"
       inkscape:connector-curvature="0" />
    <path
       style="display:inline;opacity:1;fill:#e6bea3;fill-opacity:1;fill-rule:nonzero;stroke:none;stroke-width:0.30000001;stroke-miterlimit:4;stroke-dasharray:none;stroke-opacity:1"
       id="path3789"
       d="m 419.433,377.94071 c 2.3699,2.08944 4.78238,4.14155 7.21643,6.15842 2.77531,2.41776 5.51704,4.87219 8.31279,7.26805 2.32064,2.05117 4.79793,3.90438 7.22877,5.81949 2.62327,1.93604 5.11218,4.05151 7.57662,6.18501 1.1547,1.00304 2.40442,1.88681 3.63619,2.79042 0,0 -9.59911,6.07862 -9.59911,6.07862 l 0,0 c -1.24341,-0.93212 -2.50471,-1.84484 -3.66931,-2.87646 -2.4336,-2.14364 -4.94314,-4.2046 -7.55231,-6.1315 -2.44311,-1.91831 -4.9338,-3.77525 -7.21627,-5.88847 -2.77076,-2.40993 -5.48876,-4.87951 -8.28442,-7.25883 -2.45352,-2.03323 -4.86567,-4.11839 -7.44868,-5.98954 0,0 9.7993,-6.15521 9.7993,-6.15521 z"
       inkscape:connector-curvature="0" />
    <path
       style="display:inline;opacity:1;fill:#e6bea3;fill-opacity:1;fill-rule:nonzero;stroke:none;stroke-width:0.30000001;stroke-miterlimit:4;stroke-dasharray:none;stroke-opacity:1"
       id="path3797"
       d="m 210.44762,347.19091 c 0.74833,2.47761 1.85063,4.83115 2.9312,7.1773 1.23207,2.81955 2.87521,5.4239 4.66272,7.9186 1.93952,2.64637 4.20069,5.02005 6.42586,7.42109 2.05221,2.02572 4.10334,4.05984 6.27033,5.96343 2.06672,1.86875 4.34718,3.47565 6.54287,5.18514 2.001,1.5451 4.08114,2.98051 6.1571,4.42146 2.0738,1.5194 4.12482,3.05804 5.90552,4.91928 1.66766,1.75157 2.04759,4.02941 2.44398,6.31277 0.0598,0.3471 0.11972,0.69423 0.17949,1.04133 0,0 -8.39159,4.45126 -8.39159,4.45126 l 0,0 c -0.0552,-0.34591 -0.11064,-0.69181 -0.16598,-1.03771 -0.37631,-2.0977 -0.5927,-4.2152 -2.13642,-5.84217 -1.75465,-1.80407 -3.77225,-3.30043 -5.81901,-4.75687 -2.07669,-1.4585 -4.15058,-2.92061 -6.14908,-4.48615 -2.20607,-1.72672 -4.49501,-3.35237 -6.57359,-5.23708 -2.16381,-1.9473 -4.24025,-3.9944 -6.28786,-6.06276 -2.23554,-2.44349 -4.46698,-4.89094 -6.48446,-7.52191 -1.8109,-2.54569 -3.4855,-5.21082 -4.76946,-8.06484 -1.06641,-2.35475 -2.19285,-4.68232 -3.11694,-7.09832 0,0 8.37532,-4.70385 8.37532,-4.70385 z"
       inkscape:connector-curvature="0" />
    <path
       style="display:inline;opacity:1;fill:#e6bea3;fill-opacity:1;fill-rule:nonzero;stroke:none;stroke-width:0.30000001;stroke-miterlimit:4;stroke-dasharray:none;stroke-opacity:1"
       id="path3801"
       d="m 471.61948,388.20833 c 0.60545,-2.56918 0.99207,-5.17496 1.66744,-7.72888 0.79853,-2.79494 1.66245,-5.55694 2.87312,-8.20249 0.95502,-2.21717 2.02562,-4.3672 3.34225,-6.39096 1.43953,-2.20646 3.12488,-4.23099 4.84809,-6.21797 1.96339,-2.17861 3.92179,-4.3628 5.94181,-6.48939 2.1706,-2.21757 4.44198,-4.34714 6.42344,-6.73943 1.15813,-1.44302 2.05547,-3.07196 2.83287,-4.74527 0.394,-0.93879 0.49931,-1.95865 0.7198,-2.94518 0,0 8.63367,-4.16067 8.63367,-4.16067 l 0,0 c -0.23536,1.03575 -0.38294,2.07913 -0.65376,3.10554 -0.70435,1.80075 -1.76154,3.47869 -2.88104,5.0456 -1.89512,2.48594 -4.24299,4.57591 -6.39835,6.83041 -2.0628,2.07861 -3.97203,4.29951 -5.96472,6.44471 -1.71266,1.95138 -3.38767,3.9387 -4.85369,6.08392 -1.33446,1.98526 -2.48764,4.05754 -3.39914,6.27664 -1.30511,2.57405 -2.22289,5.29133 -2.9851,8.07259 -0.73504,2.46904 -1.10086,4.99529 -1.50313,7.53503 0,0 -8.64356,4.2258 -8.64356,4.2258 z"
       inkscape:connector-curvature="0" />
    <path
       style="display:inline;opacity:1;fill:#e6bea3;fill-opacity:1;fill-rule:nonzero;stroke:#000000;stroke-width:0;stroke-miterlimit:4;stroke-dasharray:none;stroke-opacity:1"
       id="path3807"
       d="m 292.89448,226.34388 c 3.1978,0.0155 6.39563,0.015 9.59347,0.0165 4.13224,-1.2e-4 8.26447,0.004 12.39672,0.003 4.7295,0.15867 9.43741,-0.15448 14.1535,-0.4454 6.13594,-0.62135 12.28778,-1.04383 18.43103,-1.58217 6.43077,-0.53187 12.85259,-1.1733 19.26945,-1.85387 6.49942,-0.72146 13.02129,-1.19315 19.53122,-1.79804 4.3558,-0.45731 8.71597,-0.87696 13.09011,-1.10866 0.43708,-0.017 0.87417,-0.0343 1.31127,-0.0513 0,0 -2.32742,1.70473 -2.32742,1.70473 l 0,0 c -0.43416,0.0165 -0.86832,0.0332 -1.30247,0.0497 -4.34987,0.22263 -8.68654,0.62605 -13.01893,1.07016 -6.51118,0.59256 -13.03087,1.08244 -19.53051,1.80231 -6.41664,0.67866 -12.83859,1.31547 -19.269,1.84727 -6.15267,0.54032 -12.31352,0.9715 -18.45892,1.59416 -4.72482,0.30325 -9.44306,0.58915 -14.18147,0.44379 -4.13522,-8.5e-4 -8.27046,0.003 -12.40568,0.003 -3.21296,9.4e-4 -6.42595,9.4e-4 -9.6389,0.0165 0,0 2.35653,-1.71211 2.35653,-1.71211 z"
       inkscape:connector-curvature="0" />
    <path
       style="display:inline;opacity:1;fill:#e6bea3;fill-opacity:1;fill-rule:nonzero;stroke:none;stroke-width:0.30000001;stroke-miterlimit:4;stroke-dasharray:none;stroke-opacity:1"
       id="path3809"
       d="m 328.23903,241.07075 c 3.18806,0.13319 6.35346,-0.31728 9.52301,-0.58767 3.28352,-0.40865 6.51631,-1.09968 9.77829,-1.63527 2.77747,-0.45431 5.58529,-0.61982 8.39455,-0.6947 1.80287,-0.0243 0.90299,-0.0149 2.69969,-0.0282 0,0 -2.33127,1.69659 -2.33127,1.69659 l 0,0 c -1.79522,0.0151 -0.89575,0.004 -2.69844,0.0343 -2.79679,0.0814 -5.59218,0.2576 -8.35628,0.71541 -3.26229,0.55087 -6.50187,1.22796 -9.79091,1.61642 -3.18676,0.2773 -6.36948,0.69492 -9.57517,0.59511 0,0 2.35653,-1.71211 2.35653,-1.71211 z"
       inkscape:connector-curvature="0" />
    <ellipse
       style="display:inline;opacity:1;fill:#ffffff;fill-opacity:1;fill-rule:nonzero;stroke:none;stroke-width:0.99301803;stroke-miterlimit:4;stroke-dasharray:none;stroke-opacity:1"
       id="path3257-70-0-8"
       cx="366.67648"
       cy="550.89697"
       rx="23.77779"
       ry="24.544819" />
    <ellipse
       cx="268.81091"
       cy="306.23819"
       rx="27.497332"
       ry="16.887438"
       id="ellipse25-3"
       style="display:inline;fill:#1a1a1a;stroke:#000000;stroke-width:0;stroke-miterlimit:4;stroke-dasharray:none;stroke-opacity:1" />
    <ellipse
       cx="426.15802"
       cy="299.84549"
       rx="39.508835"
       ry="26.361332"
       id="ellipse25-35"
       style="display:inline;fill:#ffffff;stroke:#000000;stroke-width:0;stroke-miterlimit:4;stroke-dasharray:none;stroke-opacity:1" />
    <ellipse
       cx="427.45874"
       cy="298.93842"
       rx="27.497332"
       ry="16.887438"
       id="ellipse25-3-6"
       style="display:inline;fill:#1a1a1a;stroke:#000000;stroke-width:0;stroke-miterlimit:4;stroke-dasharray:none;stroke-opacity:1" />
    <ellipse
       cx="435.46704"
       cy="292.03052"
       rx="10.22061"
       ry="7.0753875"
       id="ellipse25-7-2"
       style="display:inline;fill:#f9f9f9;stroke:#000000;stroke-width:0;stroke-miterlimit:4;stroke-dasharray:none;stroke-opacity:1" />
    <ellipse
       cx="276.81921"
       cy="299.33029"
       rx="10.22061"
       ry="7.0753875"
       id="ellipse25-7"
       style="display:inline;fill:#f9f9f9;stroke:#000000;stroke-width:0;stroke-miterlimit:4;stroke-dasharray:none;stroke-opacity:1" />
    <path
       style="display:inline;opacity:1;fill:#d7d7d7;fill-opacity:1;fill-rule:nonzero;stroke:none;stroke-width:0.1;stroke-miterlimit:4;stroke-dasharray:none;stroke-opacity:1"
       id="path3557"
       d="m 191.75448,611.666 c -1.20579,2.35148 -2.70052,4.53142 -4.14655,6.7377 -1.33133,2.0919 -2.73834,4.07397 -4.46694,5.85416 -1.09994,1.15981 -2.32338,2.18387 -3.51392,3.24601 0,0 -4.46472,1.82343 -4.46472,1.82343 l 0,0 c 1.17399,-1.07828 2.43481,-2.05453 3.52795,-3.22189 1.7506,-1.7527 3.21029,-3.66716 4.51778,-5.77373 1.44527,-2.18279 2.96815,-4.33335 4.10668,-6.69793 0,0 4.43972,-1.96775 4.43972,-1.96775 z"
       inkscape:connector-curvature="0" />
    <path
       style="display:inline;opacity:1;fill:#d7d7d7;fill-opacity:1;fill-rule:nonzero;stroke:none;stroke-width:0.1;stroke-miterlimit:4;stroke-dasharray:none;stroke-opacity:1"
       id="path3559"
       d="m 215.23287,610.52311 c 3.16309,3.12367 6.38558,6.18633 9.39267,9.46494 2.65312,2.81934 5.20078,5.81208 7.3484,9.04033 1.79027,2.88234 3.44136,5.85176 5.1017,8.81107 1.99043,3.26341 3.84729,6.58901 6.10383,9.67924 2.37966,3.29493 5.19203,6.17528 8.20654,8.88159 2.03916,1.96961 4.411,3.52067 6.68168,5.19499 0,0 -4.06086,2.57124 -4.06086,2.57124 l 0,0 c -2.26596,-1.69362 -4.60981,-3.2938 -6.65675,-5.26264 -3.04332,-2.72443 -5.85199,-5.6553 -8.27045,-8.95983 -2.261,-3.11076 -4.12671,-6.4503 -6.13502,-9.72539 -1.66476,-2.94366 -3.31884,-5.89716 -5.09805,-8.773 -2.12467,-3.21128 -4.62904,-6.20328 -7.26319,-9.00465 -3.00668,-3.28161 -6.213,-6.36312 -9.47065,-9.39306 0,0 4.12015,-2.52483 4.12015,-2.52483 z"
       inkscape:connector-curvature="0" />
    <path
       style="display:inline;opacity:1;fill:#999999;fill-opacity:1;fill-rule:nonzero;stroke:none;stroke-width:0.1;stroke-miterlimit:4;stroke-dasharray:none;stroke-opacity:1"
       id="path3563"
       d="m 509.73682,603.94218 c -2.11844,2.46266 -3.7301,5.2713 -5.35702,8.0629 -0.20055,0.3583 -0.40109,0.7166 -0.60161,1.07489 0,0 -4.39448,1.96409 -4.39448,1.96409 l 0,0 c 0.20274,-0.36389 0.40551,-0.72779 0.60826,-1.09171 1.66439,-2.7548 3.17357,-5.62866 5.30726,-8.06859 0,0 4.43759,-1.94158 4.43759,-1.94158 z"
       inkscape:connector-curvature="0" />
    <path
       style="display:inline;opacity:1;fill:#d7d7d7;fill-opacity:1;fill-rule:nonzero;stroke:none;stroke-width:0.1;stroke-miterlimit:4;stroke-dasharray:none;stroke-opacity:1"
       id="path3565"
       d="m 535.16529,603.86848 c -2.67686,2.40715 -5.31152,4.86036 -7.71007,7.54774 -2.4906,2.87468 -4.24403,6.19203 -5.62313,9.70788 -1.10619,3.1394 -2.03386,6.33663 -3.05899,9.50242 -0.70619,2.57715 -1.86905,4.98268 -3.03711,7.37289 -0.62088,1.20452 -1.38418,2.31243 -2.16885,3.41246 0,0 -4.44083,1.92765 -4.44083,1.92765 l 0,0 c 0.7761,-1.09966 1.58789,-2.16088 2.22776,-3.35215 1.15772,-2.38343 2.37894,-4.75726 3.08964,-7.32382 1.0374,-3.17277 1.96978,-6.3791 3.06358,-9.53367 1.36329,-3.55848 3.07803,-6.92755 5.55495,-9.86157 2.3521,-2.70167 4.9707,-5.1477 7.62684,-7.54572 0,0 4.47621,-1.85411 4.47621,-1.85411 z"
       inkscape:connector-curvature="0" />
    <path
       style="display:inline;opacity:1;fill:#d7d7d7;fill-opacity:1;fill-rule:nonzero;stroke:none;stroke-width:0.1;stroke-miterlimit:4;stroke-dasharray:none;stroke-opacity:1"
       id="path3567"
       d="m 253.16343,573.29067 c -2.14357,3.34423 -3.7075,7.03918 -5.17,10.72144 -1.56272,3.67185 -2.6334,7.47114 -3.12975,11.42396 -0.32308,3.25828 -0.30669,6.53677 -0.3113,9.8072 -0.0159,3.2755 -0.0424,6.53812 0.30193,9.79774 0.39106,3.08498 0.8269,6.19926 1.73369,9.18042 0.49304,1.29331 1.08918,2.53667 1.72241,3.76526 0,0 -4.17436,2.38294 -4.17436,2.38294 l 0,0 c -0.64372,-1.2559 -1.24372,-2.5285 -1.75069,-3.84739 -0.92293,-3.00725 -1.37512,-6.14888 -1.7739,-9.26277 -0.34697,-3.27645 -0.34913,-6.55319 -0.31677,-9.84668 -0.005,-3.28848 -0.0266,-6.58478 0.29117,-9.86175 0.46943,-4.00328 1.53372,-7.84138 3.12272,-11.55438 1.43279,-3.67237 2.97106,-7.36211 5.01514,-10.73825 0,0 4.43971,-1.96774 4.43971,-1.96774 z"
       inkscape:connector-curvature="0" />
    <path
       style="display:inline;opacity:1;fill:#999999;fill-opacity:1;fill-rule:nonzero;stroke:none;stroke-width:0.09930181;stroke-miterlimit:4;stroke-dasharray:none;stroke-opacity:1"
       id="path3569"
       d="m 265.51529,568.96886 c 0.34033,2.7961 0.97686,5.55023 1.71234,8.26637 0,0 -4.22274,2.29318 -4.22274,2.29318 l 0,0 c -0.72817,-2.72981 -1.34913,-5.49107 -1.77753,-8.28477 0,0 4.28793,-2.27478 4.28793,-2.27478 z"
       inkscape:connector-curvature="0" />
    <path
       style="display:inline;opacity:1;fill:#d7d7d7;fill-opacity:1;fill-rule:nonzero;stroke:none;stroke-width:0.09930181;stroke-miterlimit:4;stroke-dasharray:none;stroke-opacity:1"
       id="path3571"
       d="m 457.77475,566.43735 c 0.8813,2.66673 1.68091,5.34274 2.21335,8.1036 0.25451,1.67929 0.14533,0.85124 0.33064,2.48367 0,0 -4.26748,2.23267 -4.26748,2.23267 l 0,0 c -0.16627,-1.61457 -0.0669,-0.79553 -0.30116,-2.45674 -0.50317,-2.74363 -1.2747,-5.40135 -2.2252,-8.02261 0,0 4.24985,-2.34059 4.24985,-2.34059 z"
       inkscape:connector-curvature="0" />
    <path
       style="display:inline;opacity:1;fill:#d7d7d7;fill-opacity:1;fill-rule:nonzero;stroke:none;stroke-width:0.09930181;stroke-miterlimit:4;stroke-dasharray:none;stroke-opacity:1"
       id="path3573"
       d="m 479.0235,570.64656 c 1.78245,2.59671 3.04438,5.48074 4.31916,8.34559 1.51353,3.16912 2.50795,6.56127 3.33245,9.96661 0.75358,2.72254 1.34687,5.47757 1.66845,8.28409 0.11917,1.45315 0.0701,0.73353 0.14841,2.15876 0,0 -4.29039,2.21367 -4.29039,2.21367 l 0,0 c -0.0664,-1.41172 -0.0241,-0.6991 -0.12822,-2.13778 -0.29051,-2.7945 -0.84688,-5.54278 -1.60767,-8.24847 -0.7925,-3.38373 -1.7787,-6.75145 -3.28479,-9.89238 -1.26263,-2.84832 -2.50477,-5.7272 -4.35898,-8.2549 0,0 4.20153,-2.43519 4.20153,-2.43519 z"
       inkscape:connector-curvature="0" />
    <ellipse
       style="display:inline;opacity:1;fill:#ffffff;fill-opacity:1;fill-rule:nonzero;stroke:none;stroke-width:0.99301803;stroke-miterlimit:4;stroke-dasharray:none;stroke-opacity:1"
       id="path3257-7-1"
       cx="376.42856"
       cy="582.94714"
       rx="30.435575"
       ry="31.417366" />
    <path
       style="display:inline;opacity:1;fill:#ffffff;fill-opacity:1;fill-rule:nonzero;stroke:none;stroke-width:0.30000001;stroke-miterlimit:4;stroke-dasharray:none;stroke-opacity:1"
       id="path3696"
       d="m 370.15263,177.47253 c 0.10679,4.80777 -1.07101,9.46931 -1.98661,14.15307 -1.60724,7.53164 -2.36836,15.20346 -3.40484,22.82529 -0.69052,5.37397 -2.31251,10.54237 -4.08222,15.64099 -0.91855,2.69134 -1.8723,5.37005 -2.87177,8.03236 0,0 -13.05563,6.06344 -13.05563,6.06344 l 0,0 c 1.04042,-2.68453 2.09781,-5.36061 3.0431,-8.08169 1.87899,-5.04853 3.65376,-10.16856 4.46931,-15.51465 1.19419,-7.61505 1.95521,-15.29559 3.3782,-22.87446 0.80943,-4.50195 1.94473,-9.02522 1.53372,-13.63238 0,0 12.97674,-6.61197 12.97674,-6.61197 z"
       inkscape:connector-curvature="0" />
  </g>
</svg>
