<?xml version="1.0" encoding="UTF-8" standalone="no"?>
<!-- Created with Inkscape (http://www.inkscape.org/) -->

<svg
   xmlns:dc="http://purl.org/dc/elements/1.1/"
   xmlns:cc="http://creativecommons.org/ns#"
   xmlns:rdf="http://www.w3.org/1999/02/22-rdf-syntax-ns#"
   xmlns:svg="http://www.w3.org/2000/svg"
   xmlns="http://www.w3.org/2000/svg"
   xmlns:sodipodi="http://sodipodi.sourceforge.net/DTD/sodipodi-0.dtd"
   xmlns:inkscape="http://www.inkscape.org/namespaces/inkscape"
   width="70.176888mm"
   height="38.181602mm"
   viewBox="0 0 248.65826 135.28914"
   id="svg2"
   version="1.1"
   inkscape:version="0.91 r13725"
   sodipodi:docname="cloud.svg">
  <defs
     id="defs4" />
  <sodipodi:namedview
     id="base"
     pagecolor="#ffffff"
     bordercolor="#666666"
     borderopacity="1.0"
     inkscape:pageopacity="0.0"
     inkscape:pageshadow="2"
     inkscape:zoom="2.8"
     inkscape:cx="191.39005"
     inkscape:cy="97.232407"
     inkscape:document-units="px"
     inkscape:current-layer="layer1"
     showgrid="false"
     fit-margin-top="0"
     fit-margin-left="0"
     fit-margin-right="0"
     fit-margin-bottom="0"
     inkscape:window-width="1600"
     inkscape:window-height="837"
     inkscape:window-x="-8"
     inkscape:window-y="-8"
     inkscape:window-maximized="1" />
  <metadata
     id="metadata7">
    <rdf:RDF>
      <cc:Work
         rdf:about="">
        <dc:format>image/svg+xml</dc:format>
        <dc:type
           rdf:resource="http://purl.org/dc/dcmitype/StillImage" />
        <dc:title></dc:title>
      </cc:Work>
    </rdf:RDF>
  </metadata>
  <g
     inkscape:label="Layer 1"
     inkscape:groupmode="layer"
     id="layer1"
     transform="translate(-143.3847,-367.5501)">
    <path
       style="fill:#ffffff;fill-opacity:0.50887573;stroke:none;stroke-width:0.1;stroke-miterlimit:4;stroke-dasharray:none"
       d="M 67.191406 0 A 67.191811 67.191811 0 0 0 0 67.191406 A 67.191811 67.191811 0 0 0 20.390625 115.30664 C 20.311567 115.99212 20.259766 116.68523 20.259766 117.39258 C 20.259766 127.30723 28.241596 135.28906 38.15625 135.28906 L 230.76172 135.28906 C 240.67637 135.28906 248.6582 127.30723 248.6582 117.39258 C 248.6582 112.92311 247.02586 108.85633 244.33594 105.72656 A 30.048952 30.048952 0 0 0 245.8125 96.476562 A 30.048952 30.048952 0 0 0 215.76367 66.427734 A 30.048952 30.048952 0 0 0 193.88086 75.939453 A 46.834667 46.834667 0 0 0 147.90625 37.857422 A 46.834667 46.834667 0 0 0 129.33008 41.759766 A 67.191811 67.191811 0 0 0 67.191406 0 z "
       transform="translate(143.3847,367.5501)"
       id="rect4136" />
  </g>
</svg>
