<?xml version="1.0" encoding="UTF-8" standalone="no"?>
<!-- Created with Inkscape (http://www.inkscape.org/) -->

<svg
   xmlns:osb="http://www.openswatchbook.org/uri/2009/osb"
   xmlns:dc="http://purl.org/dc/elements/1.1/"
   xmlns:cc="http://creativecommons.org/ns#"
   xmlns:rdf="http://www.w3.org/1999/02/22-rdf-syntax-ns#"
   xmlns:svg="http://www.w3.org/2000/svg"
   xmlns="http://www.w3.org/2000/svg"
   xmlns:xlink="http://www.w3.org/1999/xlink"
   xmlns:sodipodi="http://sodipodi.sourceforge.net/DTD/sodipodi-0.dtd"
   xmlns:inkscape="http://www.inkscape.org/namespaces/inkscape"
   width="200mm"
   height="200mm"
   viewBox="0 0 708.66141 708.66141"
   id="svg4356"
   version="1.1"
   inkscape:version="0.91 r13725"
   sodipodi:docname="portraitv2.svg">
  <defs
     id="defs4358">
    <linearGradient
       id="linearGradient4912"
       osb:paint="solid">
      <stop
         style="stop-color:#422b3b;stop-opacity:1;"
         offset="0"
         id="stop4914" />
    </linearGradient>
    <linearGradient
       id="linearGradient4906"
       osb:paint="solid">
      <stop
         style="stop-color:#000000;stop-opacity:1;"
         offset="0"
         id="stop4908" />
    </linearGradient>
    <linearGradient
       inkscape:collect="always"
       xlink:href="#linearGradient4912"
       id="linearGradient4916"
       x1="154.2357"
       y1="523.79077"
       x2="628.6214"
       y2="523.79077"
       gradientUnits="userSpaceOnUse"
       gradientTransform="matrix(1.4940186,0,0,1.4940186,-76.195317,-375.9401)" />
    <linearGradient
       inkscape:collect="always"
       xlink:href="#linearGradient4912"
       id="linearGradient4916-3"
       x1="154.2357"
       y1="523.79077"
       x2="628.6214"
       y2="523.79077"
       gradientUnits="userSpaceOnUse"
       gradientTransform="matrix(1.6274987,0,0,1.6274987,-282.06197,-534.71303)" />
    <filter
       style="color-interpolation-filters:sRGB;"
       inkscape:label="Drop Shadow"
       id="filter3316">
      <feFlood
         flood-opacity="0.498039"
         flood-color="rgb(0,0,0)"
         result="flood"
         id="feFlood3318" />
      <feComposite
         in="flood"
         in2="SourceGraphic"
         operator="out"
         result="composite1"
         id="feComposite3320" />
      <feGaussianBlur
         in="composite1"
         stdDeviation="33.8798"
         result="blur"
         id="feGaussianBlur3322" />
      <feOffset
         dx="-0.5"
         dy="1.4"
         result="offset"
         id="feOffset3324" />
      <feComposite
         in="offset"
         in2="SourceGraphic"
         operator="atop"
         result="composite2"
         id="feComposite3326" />
    </filter>
  </defs>
  <sodipodi:namedview
     id="base"
     pagecolor="#ffffff"
     bordercolor="#666666"
     borderopacity="1.0"
     inkscape:pageopacity="0.0"
     inkscape:pageshadow="2"
     inkscape:zoom="0.9899495"
     inkscape:cx="332.13289"
     inkscape:cy="368.37813"
     inkscape:document-units="px"
     inkscape:current-layer="layer3"
     showgrid="false"
     fit-margin-top="0"
     fit-margin-left="0"
     fit-margin-right="0"
     fit-margin-bottom="0"
     inkscape:window-width="1543"
     inkscape:window-height="876"
     inkscape:window-x="57"
     inkscape:window-y="24"
     inkscape:window-maximized="1" />
  <metadata
     id="metadata4361">
    <rdf:RDF>
      <cc:Work
         rdf:about="">
        <dc:format>image/svg+xml</dc:format>
        <dc:type
           rdf:resource="http://purl.org/dc/dcmitype/StillImage" />
        <dc:title />
      </cc:Work>
    </rdf:RDF>
  </metadata>
  <g
     inkscape:label="Layer 1"
     inkscape:groupmode="layer"
     id="layer1"
     transform="translate(-154.23571,-52.322186)"
     style="display:inline">
    <circle
       style="opacity:1;fill:#cddc39;fill-opacity:1;stroke:url(#linearGradient4916);stroke-width:0.14940187;stroke-miterlimit:4;stroke-dasharray:none;stroke-opacity:1"
       id="path4904"
       cx="508.60626"
       cy="406.61307"
       r="354.29587" />
  </g>
  <g
     inkscape:groupmode="layer"
     id="layer2"
     inkscape:label="Layer 2"
     style="display:inline" />
  <g
     inkscape:groupmode="layer"
     id="layer3"
     inkscape:label="Layer 3"
     style="display:inline">
    <path
       inkscape:connector-curvature="0"
       style="opacity:1;fill:#b7041e;fill-opacity:1;stroke:url(#linearGradient4916-3);stroke-width:0.16274989;stroke-miterlimit:4;stroke-dasharray:none;stroke-opacity:1"
       d="m 360.2236,505.34942 -115.71717,88.16232 -78.94332,60.25641 c 20.88779,13.14059 45.79999,26.47996 67.06489,33.41273 0,0 54.17097,17.57455 29.04343,7.85183 0,0 -8.33221,0.14943 29.04343,7.85184 0,0 16.67059,4.59199 62.88507,5.60214 65.15484,0.25254 114.47725,-18.91678 114.47725,-18.91678 30.7539,-9.86783 49.38944,-20.4396 70.24549,-32.59543 l -71.56261,-60.99683 z"
       id="path4904-7"
       sodipodi:nodetypes="ccccccccccc" />
    <ellipse
       style="fill:#98041e"
       cx="366.72299"
       cy="579.45697"
       rx="106.99"
       ry="54.624439"
       id="ellipse5" />
    <path
       inkscape:connector-curvature="0"
       style="fill:#b7041e"
       d="m 366.723,573.2064 c 0,22.3087 -14.43783,51.91112 -55.48176,51.91112 -41.04391,0 -50.55763,-36.45197 -50.55763,-58.76129 0,-22.30924 33.27313,-40.39399 74.31706,-40.39399 41.04391,0 31.72233,24.93492 31.72233,47.24416 z"
       id="path11" />
    <path
       style="fill:#280505"
       inkscape:connector-curvature="0"
       id="path15"
       d="m 561.09797,179.95224 c 0,0 -31.96819,198.1513 -67.76358,238.83748 -35.79483,40.68616 -85.24534,65.85169 -139.86694,65.85169 -54.62104,0 -104.07154,-25.16494 -139.86636,-65.85169 -35.7954,-40.68618 -57.93566,-96.89417 -57.93566,-158.97969 0,-62.08555 22.14026,-118.29297 57.93566,-158.97914 35.79482,-40.68619 182.30394,-41.279609 236.92555,-41.279609 54.62162,0 -40.43921,-5.125882 -4.64438,35.560305 10.7237,12.188564 78.35897,30.783084 78.35897,30.783084 0,0 -49.93482,7.78774 -28.34785,28.95876 29.06504,28.50554 65.20459,25.09881 65.20459,25.09881 z" />
    <polygon
       transform="matrix(0.56514863,0,0,0.56514863,-450.86169,-12.93523)"
       style="fill:#e8ae91;fill-opacity:1"
       id="polygon17"
       points="1385,943 1476,943 1501.041,1073.716 1369,1067.635 " />
    <path
       style="fill:#eab79d"
       inkscape:connector-curvature="0"
       id="path19"
       d="m 505.42066,288.06801 c 0,54.28196 9.7539,126.60065 -18.03727,162.17336 -27.79119,35.57272 -94.01022,81.0864 -136.41841,81.0864 -42.40762,0 -106.07897,-45.51368 -133.87014,-81.0864 -27.79119,-35.57271 -21.67233,-90.54304 -21.67233,-144.82556 0,-54.28254 -0.48885,-76.34141 27.30232,-111.91411 27.79176,-35.57271 214.87912,52.7945 257.2873,52.7945 42.40821,0 -50.2157,-115.45197 -22.42452,-79.87869 27.7912,35.57328 47.83305,67.36798 47.83305,121.6505 z" />
    <path
       style="fill:#280505;stroke:#000000;stroke-width:0.56514859;stroke-miterlimit:10"
       inkscape:connector-curvature="0"
       id="path21"
       d="m 517.63069,212.09225 c 0,31.89078 12.19083,57.63951 -12.24675,57.63951 -24.43817,0 -90.19264,-60.14933 -90.19264,-92.04009 0,-31.89078 19.81071,-36.90648 44.24886,-36.90648 24.43817,0 58.19053,39.4163 58.19053,71.30706 z"
       stroke-miterlimit="10" />
    <ellipse
       cx="271.96338"
       cy="321.06754"
       rx="33.90892"
       ry="49.167927"
       id="ellipse25"
       style="fill:#ffffff" />
    <path
       stroke-miterlimit="10"
       d="m 289.23757,323.6048 c 0,16.2305 -8.85588,29.38772 -19.78018,29.38772 -10.92435,0 -19.78021,-13.15722 -19.78021,-29.38772 0,-16.23051 8.85586,-29.38774 19.78021,-29.38774 7.91093,0 19.78018,13.15723 19.78018,29.38774 z"
       id="path27"
       inkscape:connector-curvature="0"
       style="fill:#280505;stroke:#000000;stroke-width:0.56514859;stroke-miterlimit:10" />
    <path
       d="m 284.20989,310.75605 c 0,6.73826 -2.08935,12.20042 -6.7586,12.20042 -4.66926,0 -10.14951,-5.46271 -10.14951,-12.20042 0,-6.73826 3.78481,-12.20101 8.45407,-12.20101 4.66925,0 8.45404,5.46275 8.45404,12.20101 z"
       id="path29"
       inkscape:connector-curvature="0"
       style="fill:#ffffff" />
    <g
       transform="matrix(0.56514863,0,0,0.56514863,-450.86169,-12.93523)"
       id="g31">
      <path
         style="fill:#d3a37f"
         inkscape:connector-curvature="0"
         id="path33"
         d="m 1348.5,731.667 c 24.894,-9.75 39.536,-54.321 41,-78" />
      <g
         id="g35">
        <path
           style="fill:#c69b73"
           inkscape:connector-curvature="0"
           id="path37"
           d="m 1348.898,733.113 c 14.49,-5.968 23.539,-20.221 29.91,-33.87 6.614,-14.169 11.124,-29.942 12.191,-45.577 0.132,-1.932 -2.869,-1.919 -3,0 -1.005,14.722 -5.299,29.416 -11.239,42.869 -5.839,13.222 -14.691,27.931 -28.659,33.685 -1.763,0.726 -0.992,3.63 0.797,2.893 l 0,0 z" />
      </g>
    </g>
    <g
       transform="matrix(0.56514863,0,0,0.56514863,-450.86169,-12.93523)"
       id="g39">
      <path
         style="fill:#9b7253"
         inkscape:connector-curvature="0"
         id="path41"
         d="m 1349.334,731.667 c 20.666,2.667 33.332,6 49.332,18.667" />
      <g
         id="g43">
        <path
           style="fill:#c69b73"
           inkscape:connector-curvature="0"
           id="path45"
           d="m 1349.334,733.167 c 17.961,2.36 33.799,6.935 48.271,18.228 1.506,1.175 3.646,-0.932 2.121,-2.121 -7.065,-5.513 -14.544,-10.086 -22.951,-13.244 -8.777,-3.296 -18.193,-4.648 -27.441,-5.863 -1.914,-0.252 -1.89,2.751 0,3 l 0,0 z" />
      </g>
    </g>
    <ellipse
       cx="418.90204"
       cy="321.06754"
       rx="33.90892"
       ry="49.167927"
       id="ellipse51"
       style="fill:#ffffff" />
    <path
       stroke-miterlimit="10"
       d="m 436.92453,320.61142 c 0,16.2305 -8.85587,29.38772 -19.7802,29.38772 -10.92432,0 -19.7802,-13.15722 -19.7802,-29.38772 0,-16.2305 8.85588,-29.38773 19.7802,-29.38773 7.91096,0 19.7802,13.15723 19.7802,29.38773 z"
       id="path53"
       inkscape:connector-curvature="0"
       style="fill:#280505;stroke:#000000;stroke-width:0.56514859;stroke-miterlimit:10" />
    <path
       style="fill:#ffffff"
       inkscape:connector-curvature="0"
       id="path55"
       d="m 423.11553,303.47138 c 0,6.73826 -2.08938,12.20043 -6.75862,12.20043 -4.66927,0 -10.14951,-5.46272 -10.14951,-12.20043 0,-6.73827 3.78481,-12.20099 8.45406,-12.20099 4.66927,0 8.45407,5.46272 8.45407,12.20099 z" />
    <g
       transform="matrix(0.56514863,0,0,0.56514863,-450.86169,-12.93523)"
       id="g57">
      <g
         id="g59">
        <path
           style="fill:#af7f58"
           inkscape:connector-curvature="0"
           id="path61"
           d="m 1347,796.099 c 1.769,29.131 34.138,40.377 59.011,40.89 29.642,0.61 62.381,-13.454 70.936,-44.089 0.521,-1.867 -2.373,-2.658 -2.893,-0.798 -8.062,28.868 -38.369,41.633 -66.144,41.898 -23.478,0.224 -56.216,-10 -57.91,-37.9 -0.117,-1.923 -3.117,-1.934 -3,-10e-4 l 0,0 z" />
      </g>
    </g>
    <g
       transform="matrix(0.56514863,0,0,0.56514863,-450.86169,-12.93523)"
       id="g183">
      <g
         id="g185">
        <path
           style="fill:#160602"
           inkscape:connector-curvature="0"
           d="m 1209.315,505.744 c 2.052,-25.63 33.465,-36.212 54.779,-39.433 20.626,-3.116 54.267,-2.38 65.438,19.188 0.89,1.719 3.479,0.201 2.59,-1.514 -11.929,-23.031 -46.826,-23.696 -68.826,-20.566 -22.926,3.262 -54.817,15.289 -56.981,42.325 -0.154,1.93 2.847,1.915 3,0 l 0,0 z"
           id="path187" />
      </g>
    </g>
    <g
       transform="matrix(0.56514863,0,0,0.56514863,-450.86169,-12.93523)"
       id="g189">
      <g
         id="g191">
        <path
           style="fill:#160602"
           inkscape:connector-curvature="0"
           d="m 1476.315,501.744 c 2.052,-25.63 33.465,-36.212 54.779,-39.433 20.626,-3.116 54.267,-2.38 65.438,19.188 0.89,1.719 3.479,0.201 2.59,-1.514 -11.929,-23.031 -46.826,-23.696 -68.826,-20.566 -22.927,3.262 -54.817,15.289 -56.981,42.325 -0.154,1.93 2.847,1.915 3,0 l 0,0 z"
           id="path193" />
      </g>
    </g>
  </g>
  <g
     inkscape:groupmode="layer"
     id="layer5"
     inkscape:label="Layer 4">
    <circle
       style="opacity:1;fill:#ffffff;fill-opacity:1;fill-rule:nonzero;stroke:none;stroke-width:8.14299965;stroke-miterlimit:4;stroke-dasharray:none;stroke-opacity:1"
       id="path3745"
       cx="361.12952"
       cy="656.63861"
       r="7.5761442" />
    <circle
       style="opacity:1;fill:#ffffff;fill-opacity:1;fill-rule:nonzero;stroke:none;stroke-width:8.14299965;stroke-miterlimit:4;stroke-dasharray:none;stroke-opacity:1"
       id="path3745-8"
       cx="361.63461"
       cy="684.41779"
       r="7.5761442" />
  </g>
</svg>
